<?xml version="1.0" encoding="utf-8"?><svg viewBox="0 0 891 260" xmlns="http://www.w3.org/2000/svg" xmlns:xlink="http://www.w3.org/1999/xlink"><style>:root>svg{display:none}:root>svg:target{display:block}</style><svg fill="none" viewBox="0 0 28 24" id="favicons--21_31" xmlns="http://www.w3.org/2000/svg">
    <path d="M0 2a2 2 0 0 1 2-2h24a2 2 0 1 1 0 4H2a2 2 0 0 1-2-2ZM0 12a2 2 0 0 1 2-2h24a2 2 0 1 1 0 4H2a2 2 0 0 1-2-2ZM0 22a2 2 0 0 1 2-2h24a2 2 0 1 1 0 4H2a2 2 0 0 1-2-2Z" fill="#fff"/>
</svg><svg fill="none" viewBox="0 0 260 260" id="favicons--favicon" xmlns="http://www.w3.org/2000/svg">
    <g clip-path="url(#aca)">
        <rect width="260" height="260" rx="40" fill="#000"/>
        <path fill="#fff" d="M16 44h227v173H16z"/>
        <path d="M13 13h234c7.18 0 13 5.82 13 13v208c0 7.18-5.82 13-13 13H13c-7.18 0-13-5.82-13-13V26c0-7.18 5.82-13 13-13Zm175.039 162.961L234 130l-45.961-45.962-18.385 18.385L197.231 130l-27.577 27.577 18.385 18.384ZM62.769 130l27.578-27.577-18.385-18.385L26 130l45.962 45.961 18.385-18.384L62.77 130Zm57.407 65 47.316-130h-27.668L92.508 195h27.668Z" fill="#000"/>
    </g>
    <defs>
        <clipPath id="aca">
            <rect width="260" height="260" rx="40" fill="#fff"/>
        </clipPath>
    </defs>
</svg><svg fill="none" viewBox="0 0 414 30" id="logo" xmlns="http://www.w3.org/2000/svg">
    <path d="M2.615 29.875c-.79 0-1.43-.235-1.92-.705C.232 28.672 0 28.008 0 27.178V2.905c0-.803.218-1.425.654-1.868.463-.442 1.09-.664 1.88-.664h10.052c3.078 0 5.476.789 7.192 2.366 1.716 1.549 2.574 3.734 2.574 6.556 0 2.821-.858 5.02-2.574 6.597-1.716 1.577-4.114 2.365-7.192 2.365H5.27v8.921c0 .83-.245 1.494-.735 1.992-.463.47-1.103.705-1.92.705Zm9.317-15.726c3.623 0 5.435-1.604 5.435-4.813 0-3.209-1.812-4.813-5.435-4.813h-6.66v9.626h6.66ZM62.274 26.431c.164.36.245.72.245 1.08 0 .636-.258 1.175-.776 1.618a2.481 2.481 0 0 1-1.716.663c-.436 0-.845-.11-1.226-.331-.382-.25-.681-.623-.9-1.12l-2.45-5.56H41.065l-2.452 5.56c-.218.497-.517.87-.899 1.12a2.478 2.478 0 0 1-1.266.332c-.627 0-1.2-.222-1.717-.664-.517-.443-.776-.982-.776-1.619 0-.36.082-.719.245-1.079L45.48 1.826c.246-.554.613-.968 1.104-1.245a3.177 3.177 0 0 1 1.634-.457c.572 0 1.104.153 1.594.457a2.53 2.53 0 0 1 1.144 1.245l11.32 24.605Zm-19.41-7.8h10.788L48.258 6.307l-5.394 12.324ZM112.12 1.784c.19-.553.49-.968.899-1.245a2.616 2.616 0 0 1 1.43-.415c.654 0 1.212.208 1.675.623.491.415.736.968.736 1.66 0 .249-.068.608-.204 1.078l-8.786 24.69a2.533 2.533 0 0 1-1.103 1.286 3.042 3.042 0 0 1-1.635.456 3.247 3.247 0 0 1-1.675-.456 2.337 2.337 0 0 1-1.063-1.287L95.611 8.631l-6.906 19.543a2.53 2.53 0 0 1-1.103 1.287 3.038 3.038 0 0 1-1.635.456 3.25 3.25 0 0 1-1.675-.456 2.382 2.382 0 0 1-1.022-1.287L74.485 3.485c-.137-.414-.205-.774-.205-1.078 0-.692.245-1.245.736-1.66a2.792 2.792 0 0 1 1.798-.623c.545 0 1.035.139 1.47.415.437.277.75.692.94 1.245l6.947 20.29L93.322 1.91c.191-.554.504-.982.94-1.287a2.31 2.31 0 0 1 1.43-.498c.518 0 .995.166 1.43.498.464.305.79.747.981 1.328l6.947 20.374 7.07-20.54ZM136.244 29.875c-.791 0-1.431-.248-1.921-.746-.463-.498-.695-1.148-.695-1.95V2.904c0-.803.218-1.425.654-1.868.463-.442 1.09-.664 1.88-.664h14.343c1.662 0 2.493.72 2.493 2.158 0 1.41-.831 2.116-2.493 2.116h-11.687v7.967h10.87c1.661 0 2.492.72 2.492 2.158 0 1.41-.831 2.116-2.492 2.116h-10.87v10.29c0 .803-.232 1.453-.695 1.95-.463.499-1.089.747-1.879.747ZM171.566 29.627c-.79 0-1.416-.222-1.88-.664-.435-.443-.653-1.065-.653-1.868V2.905c0-.803.218-1.425.653-1.868.464-.442 1.09-.664 1.88-.664h14.752c.79 0 1.403.18 1.839.54.436.36.653.871.653 1.535 0 .692-.217 1.231-.653 1.618-.436.36-1.049.54-1.839.54h-12.137v8.05h11.32c.79 0 1.403.18 1.838.539.436.36.654.885.654 1.577 0 .664-.218 1.175-.654 1.535-.435.36-1.048.54-1.838.54h-11.32v8.547h12.137c.79 0 1.403.194 1.839.581.436.36.653.885.653 1.577 0 .664-.217 1.175-.653 1.535-.436.36-1.049.54-1.839.54h-14.752ZM218.147 30c-2.779 0-5.217-.609-7.315-1.826-2.07-1.217-3.664-2.96-4.781-5.228-1.117-2.268-1.675-4.924-1.675-7.967 0-3.043.558-5.684 1.675-7.925 1.117-2.268 2.711-4.011 4.781-5.228C212.93.609 215.368 0 218.147 0c1.798 0 3.487.277 5.067.83 1.58.525 2.983 1.3 4.209 2.324.354.276.599.567.735.87.137.305.205.679.205 1.121 0 .609-.164 1.12-.491 1.536-.326.414-.722.622-1.185.622-.544 0-1.103-.194-1.675-.581-1.171-.885-2.261-1.494-3.269-1.826-1.008-.36-2.125-.54-3.351-.54-2.833 0-4.985.9-6.456 2.698-1.444 1.798-2.166 4.44-2.166 7.925 0 3.513.722 6.169 2.166 7.967 1.471 1.798 3.623 2.697 6.456 2.697 1.172 0 2.248-.18 3.228-.54 1.008-.359 2.139-.968 3.392-1.825.272-.166.545-.304.817-.415.273-.11.559-.166.858-.166.463 0 .859.208 1.185.623.327.414.491.926.491 1.535 0 .415-.068.788-.205 1.12-.136.304-.381.595-.735.871a13.425 13.425 0 0 1-4.209 2.366c-1.58.525-3.269.788-5.067.788ZM254.269 29.834c-.817 0-1.471-.235-1.962-.705-.463-.498-.694-1.148-.694-1.95V4.771h-7.437c-1.635 0-2.452-.733-2.452-2.2 0-1.466.817-2.199 2.452-2.199h20.145c1.635 0 2.452.734 2.452 2.2 0 1.466-.817 2.199-2.452 2.199h-7.437v22.406c0 .803-.245 1.453-.735 1.95-.463.47-1.09.706-1.88.706ZM284.765 29.875c-.79 0-1.431-.248-1.921-.746-.463-.498-.695-1.148-.695-1.95V2.821c0-.803.232-1.439.695-1.91.49-.497 1.131-.746 1.921-.746.817 0 1.457.249 1.92.747.49.47.736 1.106.736 1.909v24.356c0 .803-.246 1.453-.736 1.95-.463.499-1.103.747-1.92.747ZM318.732 30c-2.806 0-5.244-.609-7.314-1.826-2.043-1.217-3.624-2.96-4.74-5.228-1.117-2.268-1.676-4.924-1.676-7.967 0-3.043.545-5.684 1.635-7.925 1.117-2.268 2.71-4.011 4.781-5.228C313.488.609 315.926 0 318.732 0s5.231.609 7.274 1.826c2.07 1.217 3.65 2.96 4.74 5.228 1.117 2.24 1.676 4.882 1.676 7.925s-.559 5.699-1.676 7.967-2.71 4.011-4.781 5.228c-2.043 1.217-4.454 1.826-7.233 1.826Zm0-4.274c2.643 0 4.7-.927 6.171-2.78 1.498-1.853 2.247-4.509 2.247-7.967 0-3.458-.749-6.1-2.247-7.925-1.471-1.853-3.528-2.78-6.171-2.78-2.669 0-4.753.927-6.252 2.78-1.471 1.826-2.206 4.467-2.206 7.925s.735 6.114 2.206 7.967c1.499 1.853 3.583 2.78 6.252 2.78ZM371.826.166c.763 0 1.362.249 1.798.747.463.47.695 1.106.695 1.909v24.356c0 .803-.232 1.453-.695 1.95-.463.499-1.062.747-1.798.747-.872 0-1.539-.318-2.002-.954l-14.915-19.71v17.967c0 .803-.218 1.453-.654 1.95-.436.499-1.035.747-1.798.747-.763 0-1.362-.248-1.798-.746-.436-.498-.654-1.148-.654-1.95V2.821c0-.803.232-1.439.695-1.91.463-.497 1.076-.746 1.838-.746.845 0 1.499.318 1.962.954l14.874 19.627V2.822c0-.803.218-1.439.654-1.91.463-.497 1.062-.746 1.798-.746ZM402.763 30c-2.098 0-4.087-.277-5.967-.83-1.852-.58-3.364-1.355-4.535-2.324-.627-.47-.94-1.134-.94-1.991 0-.581.163-1.08.49-1.494.354-.443.763-.664 1.226-.664.49 0 1.049.194 1.675.581 1.172.858 2.398 1.48 3.678 1.867 1.281.387 2.697.581 4.25.581 1.989 0 3.514-.346 4.577-1.037 1.062-.72 1.593-1.757 1.593-3.112 0-1.051-.504-1.854-1.512-2.407-.98-.58-2.628-1.134-4.944-1.66-2.397-.525-4.345-1.134-5.844-1.825-1.498-.692-2.628-1.577-3.391-2.656-.763-1.079-1.144-2.448-1.144-4.108 0-1.715.476-3.25 1.43-4.606.953-1.355 2.275-2.406 3.964-3.153C399.085.387 401.005 0 403.13 0c3.896 0 7.07 1.051 9.521 3.154.355.304.6.608.736.912.163.277.245.637.245 1.08 0 .58-.177 1.092-.531 1.535-.327.414-.722.622-1.185.622-.272 0-.531-.042-.776-.125a6.685 6.685 0 0 1-.899-.456c-1.117-.83-2.207-1.438-3.27-1.826-1.035-.415-2.315-.622-3.841-.622-1.852 0-3.323.387-4.413 1.162-1.062.747-1.594 1.798-1.594 3.153 0 1.134.477 2.006 1.431 2.614.953.609 2.574 1.176 4.862 1.702 2.425.553 4.386 1.175 5.885 1.867 1.525.664 2.683 1.521 3.473 2.572.817 1.052 1.226 2.365 1.226 3.942 0 1.715-.477 3.237-1.43 4.565-.926 1.3-2.248 2.323-3.964 3.07-1.689.72-3.637 1.079-5.843 1.079Z" fill="#EDB24E"/>
</svg><svg fill="none" viewBox="0 0 28 24" id="svgicons--21_31" xmlns="http://www.w3.org/2000/svg">
    <path d="M0 2a2 2 0 0 1 2-2h24a2 2 0 1 1 0 4H2a2 2 0 0 1-2-2ZM0 12a2 2 0 0 1 2-2h24a2 2 0 1 1 0 4H2a2 2 0 0 1-2-2ZM0 22a2 2 0 0 1 2-2h24a2 2 0 1 1 0 4H2a2 2 0 0 1-2-2Z" fill="#fff"/>
</svg><svg fill="none" viewBox="0 0 28 24" id="svgicons--21_32" xmlns="http://www.w3.org/2000/svg">
    <path d="M0 2a2 2 0 0 1 2-2h24a2 2 0 1 1 0 4H2a2 2 0 0 1-2-2ZM0 12a2 2 0 0 1 2-2h24a2 2 0 1 1 0 4H2a2 2 0 0 1-2-2ZM0 22a2 2 0 0 1 2-2h24a2 2 0 1 1 0 4H2a2 2 0 0 1-2-2Z" fill="#fff"/>
</svg><svg fill="none" viewBox="0 0 24 24" id="svgicons--21_40" xmlns="http://www.w3.org/2000/svg">
    <g opacity=".4" fill-rule="evenodd" clip-rule="evenodd" fill="#fff">
        <path d="M9.934 3.703a6.313 6.313 0 1 0 0 12.625 6.313 6.313 0 0 0 0-12.625Zm-7.996 6.312a7.996 7.996 0 1 1 15.992 0 7.996 7.996 0 0 1-15.992 0Z"/>
        <path d="M13.96 14.899a.842.842 0 0 1 1.19-.016l6.046 5.892a.842.842 0 1 1-1.175 1.206l-6.045-5.892a.842.842 0 0 1-.016-1.19Z"/>
    </g>
</svg><svg fill="none" viewBox="0 0 20 21" id="svgicons--21_41" xmlns="http://www.w3.org/2000/svg">
    <path fill-rule="evenodd" clip-rule="evenodd" d="M7.996 1.683a6.312 6.312 0 1 0 0 12.625 6.312 6.312 0 0 0 0-12.625ZM0 7.996a7.996 7.996 0 1 1 15.992 0A7.996 7.996 0 0 1 0 7.996Z" fill="#fff"/>
    <path fill-rule="evenodd" clip-rule="evenodd" d="M12.022 12.88a.842.842 0 0 1 1.19-.016l6.046 5.892a.842.842 0 1 1-1.175 1.205l-6.045-5.892a.842.842 0 0 1-.016-1.19Z" fill="#fff"/>
</svg><svg fill="none" viewBox="0 0 19 20" id="svgicons--21_49" xmlns="http://www.w3.org/2000/svg">
    <path fill-rule="evenodd" clip-rule="evenodd" d="M14.02 4.789c0 2.77-2.084 4.918-4.514 4.918S4.991 7.559 4.991 4.812C4.98 2.101 7.088 0 9.506 0c2.418 0 4.515 2.054 4.515 4.789ZM0 18.498C0 19.484.643 20 2.442 20h14.116C18.357 20 19 19.484 19 18.498c0-2.864-3.657-6.808-9.494-6.808C3.657 11.69 0 15.634 0 18.498Z" fill="#fff"/>
</svg><svg fill="none" viewBox="0 0 28 28" id="svgicons--21_55" xmlns="http://www.w3.org/2000/svg">
    <path fill-rule="evenodd" clip-rule="evenodd" d="M11.221 16.966a1 1 0 0 0 1.1.653l12.766-2.036a1 1 0 0 0 .824-.792l1.354-6.792a1 1 0 0 0-.964-1.196l-17.36-.28a1 1 0 0 0-.958 1.335l3.238 9.109ZM11.826 24.86a2.326 2.326 0 1 0 0-4.653 2.326 2.326 0 0 0 0 4.652ZM23.457 24.86a2.326 2.326 0 1 0 0-4.653 2.326 2.326 0 0 0 0 4.652ZM5 3.5c1.933 0 3.5-.224 3.5-.5S6.933 2.5 5 2.5s-3.5.224-3.5.5 1.567.5 3.5.5Z" fill="#fff"/>
    <path fill-rule="evenodd" clip-rule="evenodd" d="M2.454 2.151C3.118 2.057 4.017 2 5 2c.983 0 1.882.057 2.546.151.327.047.619.106.839.18.107.037.227.086.33.158C8.8 2.55 9 2.713 9 3c0 .287-.2.451-.285.51a1.317 1.317 0 0 1-.33.158c-.22.075-.512.134-.84.18C6.883 3.944 5.984 4 5 4c-.983 0-1.882-.057-2.546-.151a4.934 4.934 0 0 1-.839-.18 1.317 1.317 0 0 1-.33-.158C1.2 3.45 1 3.287 1 3c0-.287.2-.451.285-.51.103-.073.223-.122.33-.158.22-.075.512-.134.84-.18Z" fill="#fff"/>
</svg><svg fill="none" viewBox="0 0 27 23" id="svgicons--21_56" xmlns="http://www.w3.org/2000/svg">
    <path fill-rule="evenodd" clip-rule="evenodd" d="M10.221 14.966a1 1 0 0 0 1.1.653l12.766-2.036a1 1 0 0 0 .824-.792l1.354-6.792a1 1 0 0 0-.964-1.196l-17.36-.28a1 1 0 0 0-.958 1.335l3.238 9.109ZM10.826 22.86a2.326 2.326 0 1 0 0-4.653 2.326 2.326 0 0 0 0 4.652ZM22.457 22.86a2.326 2.326 0 1 0 0-4.653 2.326 2.326 0 0 0 0 4.652ZM4 1.5c1.933 0 3.5-.224 3.5-.5S5.933.5 4 .5.5.724.5 1s1.567.5 3.5.5Z" fill="#fff"/>
    <path fill-rule="evenodd" clip-rule="evenodd" d="M1.454.151C2.118.057 3.017 0 4 0c.983 0 1.882.057 2.546.151.327.047.619.106.839.18.107.037.227.086.33.158C7.8.55 8 .713 8 1c0 .287-.2.451-.285.51a1.317 1.317 0 0 1-.33.158c-.22.075-.512.134-.84.18C5.883 1.944 4.984 2 4 2c-.983 0-1.882-.057-2.546-.151a4.934 4.934 0 0 1-.839-.18 1.317 1.317 0 0 1-.33-.158C.2 1.45 0 1.287 0 1 0 .713.2.549.285.49.388.416.508.367.615.331c.22-.075.512-.134.84-.18Z" fill="#fff"/>
</svg><svg fill="none" viewBox="0 0 20 20" id="svgicons--34520_16" xmlns="http://www.w3.org/2000/svg">
    <circle cx="10" cy="10" r="7.5" fill="#CB11AB" stroke="#CB11AB"/>
    <path d="M10 13a3 3 0 1 0 0-6 3 3 0 0 0 0 6Z" fill="#fff"/>
</svg><svg fill="none" viewBox="0 0 16 16" id="svgicons--34520_17" xmlns="http://www.w3.org/2000/svg">
    <circle cx="8" cy="8" r="7.5" fill="#CB11AB" stroke="#CB11AB"/>
</svg><svg fill="none" viewBox="0 0 6 6" id="svgicons--34520_18" xmlns="http://www.w3.org/2000/svg">
    <path d="M3 6a3 3 0 1 0 0-6 3 3 0 0 0 0 6Z" fill="#fff"/>
</svg><svg fill="none" viewBox="0 0 30 10" id="svgicons--34520_22" xmlns="http://www.w3.org/2000/svg">
    <path d="m16.682 1.51-1.817 3.915h-.184V.667h-2.595v8.002h2.152c.584 0 1.103-.335 1.352-.854l1.827-3.904h.184V8.67h2.596V.667h-2.185c-.562 0-1.092.335-1.33.843ZM6.973 1.716l-1.07 3.709h-.185l-1.081-3.71A1.46 1.46 0 0 0 3.23.668H.668v8.002h2.595V3.911h.184L4.94 8.67h1.73l1.492-4.758h.184V8.67h2.595V.667H8.38a1.45 1.45 0 0 0-1.406 1.049ZM21.325 4.234V8.67h2.596V6.073h2.79c1.213 0 2.24-.768 2.619-1.839h-8.005Z" fill="#319B42"/>
    <path d="M26.636.667h-5.777c.357 1.904 2.023 3.245 4.025 3.245h4.489c.032-.173.054-.368.054-.562 0-1.547-1.244-2.683-2.791-2.683Z" fill="url(#ana)"/>
    <defs>
        <linearGradient id="ana" x1="20.859" y1="2.29" x2="29.427" y2="2.29" gradientUnits="userSpaceOnUse">
            <stop stop-color="#00A3E1"/>
            <stop offset=".304" stop-color="#009ADD"/>
            <stop offset=".799" stop-color="#0082D4"/>
            <stop offset="1" stop-color="#0076CF"/>
        </linearGradient>
    </defs>
</svg><svg fill="none" viewBox="0 0 9 8" id="svgicons--34520_24" xmlns="http://www.w3.org/2000/svg">
    <path d="M4.596.843 2.78 4.758h-.184V0H0v8.002h2.152c.584 0 1.103-.335 1.352-.854L5.33 3.244h.184v4.758h2.596V0H5.926c-.562 0-1.092.335-1.33.843Z" fill="#319B42"/>
</svg><svg fill="none" viewBox="0 0 11 8" id="svgicons--34520_25" xmlns="http://www.w3.org/2000/svg">
    <path d="m6.305 1.049-1.07 3.709H5.05L3.97 1.048A1.46 1.46 0 0 0 2.563 0H0v8.002h2.595V3.244h.184l1.493 4.758h1.73l1.492-4.758h.184v4.758h2.596V0H7.71a1.45 1.45 0 0 0-1.406 1.049Z" fill="#319B42"/>
</svg><svg fill="none" viewBox="0 0 9 8" id="svgicons--34520_26" xmlns="http://www.w3.org/2000/svg">
    <path d="M.465 3.567v4.435h2.597V5.406h2.79c1.212 0 2.24-.768 2.618-1.839H.465Z" fill="#319B42"/>
    <path d="M5.777 0H0c.357 1.904 2.023 3.245 4.024 3.245h4.49c.032-.173.054-.368.054-.562C8.568 1.136 7.324 0 5.777 0Z" fill="url(#aqa)"/>
    <defs>
        <linearGradient id="aqa" x1="0" y1="1.623" x2="8.568" y2="1.623" gradientUnits="userSpaceOnUse">
            <stop stop-color="#00A3E1"/>
            <stop offset=".304" stop-color="#009ADD"/>
            <stop offset=".799" stop-color="#0082D4"/>
            <stop offset="1" stop-color="#0076CF"/>
        </linearGradient>
    </defs>
</svg><svg fill="none" viewBox="0 0 20 20" id="svgicons--34520_31" xmlns="http://www.w3.org/2000/svg">
    <circle cx="10" cy="10" r="7.5" stroke="#000" stroke-opacity=".2"/>
</svg><svg fill="none" viewBox="0 0 16 16" id="svgicons--34520_32" xmlns="http://www.w3.org/2000/svg">
    <circle cx="8" cy="8" r="7.5" stroke="#000" stroke-opacity=".2"/>
</svg><svg fill="none" viewBox="0 0 32 12" id="svgicons--34520_36" xmlns="http://www.w3.org/2000/svg">
    <path fill-rule="evenodd" clip-rule="evenodd" d="M16.47 4.073c-.017 1.408 1.255 2.193 2.214 2.66.985.48 1.315.787 1.312 1.215-.008.656-.786.945-1.514.957-1.27.02-2.01-.343-2.596-.618l-.458 2.142c.589.271 1.68.508 2.811.518 2.656 0 4.393-1.31 4.403-3.343.01-2.58-3.568-2.722-3.544-3.875.009-.35.342-.723 1.073-.818.362-.047 1.361-.084 2.493.437l.445-2.072a6.776 6.776 0 0 0-2.366-.434c-2.5 0-4.258 1.329-4.272 3.23ZM27.38 1.02c-.485 0-.894.283-1.076.717l-3.794 9.057h2.654l.528-1.459h3.243l.306 1.46h2.339L29.539 1.02h-2.16Zm.37 2.64.767 3.67h-2.098l1.332-3.67Zm-14.496-2.64-2.092 9.774h2.528l2.091-9.774h-2.527Zm-3.741 0L6.88 7.674 5.816 2.017c-.125-.632-.618-.996-1.166-.996H.347l-.06.284c.883.191 1.887.5 2.495.831.372.202.478.379.6.86l2.017 7.8H8.07l4.097-9.775H9.513Z" fill="#1434CB"/>
</svg><svg fill="none" viewBox="0 0 32 11" id="svgicons--34520_37" xmlns="http://www.w3.org/2000/svg">
    <path fill-rule="evenodd" clip-rule="evenodd" d="M16.184 3.23c-.018 1.408 1.254 2.194 2.213 2.66.985.48 1.315.787 1.312 1.216-.008.656-.786.945-1.514.956-1.27.02-2.01-.343-2.597-.617l-.457 2.142c.589.271 1.68.508 2.811.518 2.656 0 4.393-1.31 4.403-3.343.01-2.58-3.568-2.722-3.544-3.875.009-.35.342-.723 1.073-.818.362-.048 1.36-.084 2.493.437l.445-2.072A6.776 6.776 0 0 0 20.456 0c-2.5 0-4.258 1.329-4.272 3.23ZM27.093.18c-.485 0-.894.282-1.076.717l-3.794 9.057h2.654l.528-1.46h3.243l.306 1.46h2.339L29.252.179h-2.16Zm.37 2.64.766 3.67h-2.097l1.332-3.67ZM12.967.179l-2.091 9.774h2.528L15.494.179h-2.528Zm-3.74 0L6.593 6.83 5.53 1.175C5.404.543 4.91.179 4.363.179H.06L0 .462c.883.192 1.887.501 2.495.832.372.202.478.379.6.859l2.017 7.8h2.672L11.881.179H9.226Z" fill="#1434CB"/>
</svg><svg fill="none" viewBox="0 0 20 20" id="svgicons--34520_42" xmlns="http://www.w3.org/2000/svg">
    <circle cx="10" cy="10" r="7.5" stroke="#000" stroke-opacity=".2"/>
</svg><svg fill="none" viewBox="0 0 16 16" id="svgicons--34520_43" xmlns="http://www.w3.org/2000/svg">
    <circle cx="8" cy="8" r="7.5" stroke="#000" stroke-opacity=".2"/>
</svg><svg fill="none" viewBox="0 0 24 14" id="svgicons--34520_47" xmlns="http://www.w3.org/2000/svg">
    <path fill-rule="evenodd" clip-rule="evenodd" d="M22.934 11.337v-.272h-.071l-.082.187-.081-.187h-.071v.272h.05v-.205l.076.177h.053l.076-.177v.205h.05Zm-.45 0v-.225h.091v-.046h-.231v.046h.09v.225h.05Z" fill="#F79410"/>
    <path fill-rule="evenodd" clip-rule="evenodd" d="M14.888 12.502H8.764V1.495h6.124v11.007Z" fill="#FF5F00"/>
    <path fill-rule="evenodd" clip-rule="evenodd" d="M9.151 7a6.989 6.989 0 0 1 2.674-5.503A7 7 0 0 0 .5 7a7 7 0 0 0 11.325 5.504A6.989 6.989 0 0 1 9.15 7" fill="#EB001B"/>
    <path fill-rule="evenodd" clip-rule="evenodd" d="M23.15 7a7 7 0 0 1-11.326 5.504A6.987 6.987 0 0 0 14.498 7a6.987 6.987 0 0 0-2.674-5.503A7 7 0 0 1 23.15 7" fill="#F79410"/>
</svg><svg fill="none" viewBox="0 0 1 1" id="svgicons--34520_48" xmlns="http://www.w3.org/2000/svg">
    <path fill-rule="evenodd" clip-rule="evenodd" d="M.59.272V0H.52L.436.186.356 0H.285v.272h.05V.067l.077.177h.052L.54.067v.205h.05Zm-.45 0V.047h.091V0H0v.046h.09v.225h.05Z" fill="#F79410"/>
</svg><svg fill="none" viewBox="0 0 7 11" id="svgicons--34520_49" xmlns="http://www.w3.org/2000/svg">
    <path fill-rule="evenodd" clip-rule="evenodd" d="M6.125 11.007H0V0h6.125v11.007Z" fill="#FF5F00"/>
</svg><svg fill="none" viewBox="0 0 12 14" id="svgicons--34520_50" xmlns="http://www.w3.org/2000/svg">
    <path fill-rule="evenodd" clip-rule="evenodd" d="M8.651 7a6.989 6.989 0 0 1 2.674-5.503A7 7 0 0 0 0 7a7 7 0 0 0 11.325 5.504A6.989 6.989 0 0 1 8.65 7" fill="#EB001B"/>
</svg><svg fill="none" viewBox="0 0 12 14" id="svgicons--34520_51" xmlns="http://www.w3.org/2000/svg">
    <path fill-rule="evenodd" clip-rule="evenodd" d="M11.325 7A7 7 0 0 1 0 12.504 6.987 6.987 0 0 0 2.674 7 6.987 6.987 0 0 0 0 1.497 7 7 0 0 1 11.325 7" fill="#F79410"/>
</svg><svg fill="none" viewBox="0 0 20 20" id="svgicons--34520_56" xmlns="http://www.w3.org/2000/svg">
    <circle cx="10" cy="10" r="7.5" stroke="#000" stroke-opacity=".2"/>
</svg><svg fill="none" viewBox="0 0 16 16" id="svgicons--34520_57" xmlns="http://www.w3.org/2000/svg">
    <circle cx="8" cy="8" r="7.5" stroke="#000" stroke-opacity=".2"/>
</svg><svg fill="none" viewBox="0 0 24 14" id="svgicons--34520_61" xmlns="http://www.w3.org/2000/svg">
    <path fill-rule="evenodd" clip-rule="evenodd" d="M14.888 12.502H8.764V1.495h6.124v11.007Z" fill="#6C6BBD"/>
    <path fill-rule="evenodd" clip-rule="evenodd" d="M9.151 7a6.989 6.989 0 0 1 2.674-5.503A7 7 0 0 0 .5 7a7 7 0 0 0 11.325 5.504A6.989 6.989 0 0 1 9.15 7" fill="#EB001B"/>
    <path fill-rule="evenodd" clip-rule="evenodd" d="M23.15 7a7 7 0 0 1-11.326 5.504A6.987 6.987 0 0 0 14.498 7a6.987 6.987 0 0 0-2.674-5.503A7 7 0 0 1 23.15 7" fill="#0099DF"/>
</svg><svg fill="none" viewBox="0 0 7 11" id="svgicons--34520_62" xmlns="http://www.w3.org/2000/svg">
    <path fill-rule="evenodd" clip-rule="evenodd" d="M6.125 11.007H0V0h6.125v11.007Z" fill="#6C6BBD"/>
</svg><svg fill="none" viewBox="0 0 12 14" id="svgicons--34520_63" xmlns="http://www.w3.org/2000/svg">
    <path fill-rule="evenodd" clip-rule="evenodd" d="M8.651 7a6.989 6.989 0 0 1 2.674-5.503A7 7 0 0 0 0 7a7 7 0 0 0 11.325 5.504A6.989 6.989 0 0 1 8.65 7" fill="#EB001B"/>
</svg><svg fill="none" viewBox="0 0 12 14" id="svgicons--34520_64" xmlns="http://www.w3.org/2000/svg">
    <path fill-rule="evenodd" clip-rule="evenodd" d="M11.325 7A7 7 0 0 1 0 12.504 6.987 6.987 0 0 0 2.674 7 6.987 6.987 0 0 0 0 1.497 7 7 0 0 1 11.325 7" fill="#0099DF"/>
</svg><svg fill="none" viewBox="0 0 15 15" id="svgicons--34520_8" xmlns="http://www.w3.org/2000/svg">
    <path d="M13.02.293a1 1 0 0 1 1.414 1.414L8.778 7.363l5.657 5.657a1.001 1.001 0 0 1-1.414 1.415L7.363 8.777l-5.656 5.658A1 1 0 1 1 .293 13.02l5.656-5.657L.293 1.707A1 1 0 0 1 1.708.293l5.656 5.656L13.02.293Z" fill="#9797AF"/>
</svg><svg fill="none" viewBox="0 0 20 20" id="svgicons--34521_103" xmlns="http://www.w3.org/2000/svg">
    <path fill-rule="evenodd" clip-rule="evenodd" d="M2.5 5a.5.5 0 0 1 .5-.5h14a.5.5 0 0 1 0 1H3a.5.5 0 0 1-.5-.5Z" fill="#9797AF"/>
    <path fill-rule="evenodd" clip-rule="evenodd" d="M3.458 4.5h13.048l-.865 11.193A2.5 2.5 0 0 1 13.15 18H6.846a2.5 2.5 0 0 1-2.492-2.3L3.458 4.5Zm1.084 1 .81 10.12A1.5 1.5 0 0 0 6.845 17h6.303a1.5 1.5 0 0 0 1.495-1.384L15.426 5.5H4.542Z" fill="#9797AF"/>
    <path fill-rule="evenodd" clip-rule="evenodd" d="M13 5.5H7V3.469C7 2.658 7.658 2 8.469 2h3.062C12.342 2 13 2.658 13 3.469V5.5ZM8.469 3A.469.469 0 0 0 8 3.469V4.5h4V3.469A.469.469 0 0 0 11.531 3H8.47Z" fill="#9797AF"/>
</svg><svg fill="none" viewBox="0 0 15 16" id="svgicons--34521_104" xmlns="http://www.w3.org/2000/svg">
    <path fill-rule="evenodd" clip-rule="evenodd" d="M0 3a.5.5 0 0 1 .5-.5h14a.5.5 0 0 1 0 1H.5A.5.5 0 0 1 0 3Z" fill="#9797AF"/>
    <path fill-rule="evenodd" clip-rule="evenodd" d="M.958 2.5h13.048l-.865 11.193A2.5 2.5 0 0 1 10.65 16H4.346a2.5 2.5 0 0 1-2.492-2.3L.958 2.5Zm1.084 1 .81 10.12A1.5 1.5 0 0 0 4.345 15h6.303a1.5 1.5 0 0 0 1.495-1.384L12.926 3.5H2.042Z" fill="#9797AF"/>
    <path fill-rule="evenodd" clip-rule="evenodd" d="M10.5 3.5h-6V1.469C4.5.658 5.158 0 5.969 0H9.03C9.842 0 10.5.658 10.5 1.469V3.5ZM5.969 1a.469.469 0 0 0-.469.469V2.5h4V1.469A.469.469 0 0 0 9.031 1H5.97Z" fill="#9797AF"/>
</svg><svg fill="none" viewBox="0 0 20 20" id="svgicons--34521_107" xmlns="http://www.w3.org/2000/svg">
    <circle cx="10" cy="10" r="7.5" stroke="#000" stroke-opacity=".2"/>
</svg><svg fill="none" viewBox="0 0 16 16" id="svgicons--34521_108" xmlns="http://www.w3.org/2000/svg">
    <circle cx="8" cy="8" r="7.5" stroke="#000" stroke-opacity=".2"/>
</svg><svg fill="none" viewBox="0 0 20 20" id="svgicons--34521_114" xmlns="http://www.w3.org/2000/svg">
    <path fill-rule="evenodd" clip-rule="evenodd" d="M2.5 5a.5.5 0 0 1 .5-.5h14a.5.5 0 0 1 0 1H3a.5.5 0 0 1-.5-.5Z" fill="#F55123"/>
    <path fill-rule="evenodd" clip-rule="evenodd" d="M3.458 4.5h13.048l-.865 11.193A2.5 2.5 0 0 1 13.15 18H6.846a2.5 2.5 0 0 1-2.492-2.3L3.458 4.5Zm1.084 1 .81 10.12A1.5 1.5 0 0 0 6.845 17h6.303a1.5 1.5 0 0 0 1.495-1.384L15.426 5.5H4.542Z" fill="#F55123"/>
    <path fill-rule="evenodd" clip-rule="evenodd" d="M13 5.5H7V3.469C7 2.658 7.658 2 8.469 2h3.062C12.342 2 13 2.658 13 3.469V5.5ZM8.469 3A.469.469 0 0 0 8 3.469V4.5h4V3.469A.469.469 0 0 0 11.531 3H8.47Z" fill="#F55123"/>
</svg><svg fill="none" viewBox="0 0 15 16" id="svgicons--34521_115" xmlns="http://www.w3.org/2000/svg">
    <path fill-rule="evenodd" clip-rule="evenodd" d="M0 3a.5.5 0 0 1 .5-.5h14a.5.5 0 0 1 0 1H.5A.5.5 0 0 1 0 3Z" fill="#F55123"/>
    <path fill-rule="evenodd" clip-rule="evenodd" d="M.958 2.5h13.048l-.865 11.193A2.5 2.5 0 0 1 10.65 16H4.346a2.5 2.5 0 0 1-2.492-2.3L.958 2.5Zm1.084 1 .81 10.12A1.5 1.5 0 0 0 4.345 15h6.303a1.5 1.5 0 0 0 1.495-1.384L12.926 3.5H2.042Z" fill="#F55123"/>
    <path fill-rule="evenodd" clip-rule="evenodd" d="M10.5 3.5h-6V1.469C4.5.658 5.158 0 5.969 0H9.03C9.842 0 10.5.658 10.5 1.469V3.5ZM5.969 1a.469.469 0 0 0-.469.469V2.5h4V1.469A.469.469 0 0 0 9.031 1H5.97Z" fill="#F55123"/>
</svg><svg fill="none" viewBox="0 0 20 20" id="svgicons--34521_118" xmlns="http://www.w3.org/2000/svg">
    <circle cx="10" cy="10" r="7.5" stroke="#000" stroke-opacity=".2"/>
</svg><svg fill="none" viewBox="0 0 16 16" id="svgicons--34521_119" xmlns="http://www.w3.org/2000/svg">
    <circle cx="8" cy="8" r="7.5" stroke="#000" stroke-opacity=".2"/>
</svg><svg fill="none" viewBox="0 0 20 20" id="svgicons--34521_126" xmlns="http://www.w3.org/2000/svg">
    <path fill-rule="evenodd" clip-rule="evenodd" d="M2.5 5a.5.5 0 0 1 .5-.5h14a.5.5 0 0 1 0 1H3a.5.5 0 0 1-.5-.5Z" fill="#9797AF"/>
    <path fill-rule="evenodd" clip-rule="evenodd" d="M3.458 4.5h13.048l-.865 11.193A2.5 2.5 0 0 1 13.15 18H6.846a2.5 2.5 0 0 1-2.492-2.3L3.458 4.5Zm1.084 1 .81 10.12A1.5 1.5 0 0 0 6.845 17h6.303a1.5 1.5 0 0 0 1.495-1.384L15.426 5.5H4.542Z" fill="#9797AF"/>
    <path fill-rule="evenodd" clip-rule="evenodd" d="M13 5.5H7V3.469C7 2.658 7.658 2 8.469 2h3.062C12.342 2 13 2.658 13 3.469V5.5ZM8.469 3A.469.469 0 0 0 8 3.469V4.5h4V3.469A.469.469 0 0 0 11.531 3H8.47Z" fill="#9797AF"/>
</svg><svg fill="none" viewBox="0 0 15 16" id="svgicons--34521_127" xmlns="http://www.w3.org/2000/svg">
    <path fill-rule="evenodd" clip-rule="evenodd" d="M0 3a.5.5 0 0 1 .5-.5h14a.5.5 0 0 1 0 1H.5A.5.5 0 0 1 0 3Z" fill="#9797AF"/>
    <path fill-rule="evenodd" clip-rule="evenodd" d="M.958 2.5h13.048l-.865 11.193A2.5 2.5 0 0 1 10.65 16H4.346a2.5 2.5 0 0 1-2.492-2.3L.958 2.5Zm1.084 1 .81 10.12A1.5 1.5 0 0 0 4.345 15h6.303a1.5 1.5 0 0 0 1.495-1.384L12.926 3.5H2.042Z" fill="#9797AF"/>
    <path fill-rule="evenodd" clip-rule="evenodd" d="M10.5 3.5h-6V1.469C4.5.658 5.158 0 5.969 0H9.03C9.842 0 10.5.658 10.5 1.469V3.5ZM5.969 1a.469.469 0 0 0-.469.469V2.5h4V1.469A.469.469 0 0 0 9.031 1H5.97Z" fill="#9797AF"/>
</svg><svg fill="none" viewBox="0 0 16 16" id="svgicons--34521_136" xmlns="http://www.w3.org/2000/svg">
    <g clip-path="url(#bta)">
        <path d="M3.2 12.4c-.3-.4-.6-1.1-1.2-2C1.7 9.9.8 8.9.5 8.5c-.2-.4-.2-.6-.1-1 .1-.6.7-1.1 1.4-1.1.5 0 1 .4 1.4.7.2.2.5.6.7.8.2.2.2.3.4.5.2.3.3.5.2.1-.1-.5-.2-1.3-.4-2.1-.1-.6-.2-.7-.3-1.1-.1-.5-.2-.8-.3-1.3-.1-.3-.2-1.1-.3-1.5-.1-.5-.1-1.4.3-1.8.3-.3.9-.4 1.3-.2.5.3.8 1 .9 1.3.2.5.4 1.2.5 2 .2 1 .5 2.5.5 2.8 0-.4-.1-1.1 0-1.5.1-.3.3-.7.7-.8.3-.1.6-.1.9-.1.3.1.6.3.8.5.4.6.4 1.9.4 1.8.1-.4.1-1.2.3-1.6.1-.2.5-.4.7-.5.3-.1.7-.1 1 0 .2 0 .6.3.7.5.2.3.3 1.3.4 1.7 0 .1.1-.4.3-.7.4-.6 1.8-.8 1.9.6v2.3c0 .4-.1 1.3-.2 1.7-.1.3-.4 1-.7 1.4 0 0-1.1 1.2-1.2 1.8-.1.6-.1.6-.1 1s.1.9.1.9-.8.1-1.2 0c-.4-.1-.9-.8-1-1.1-.2-.3-.5-.3-.7 0-.2.4-.7 1.1-1.1 1.1-.7.1-2.1 0-3.1 0 0 0 .2-1-.2-1.4l-1.1-1.1-1.1-.7Z" fill="#fff"/>
        <path d="M3.2 12.4c-.3-.4-.6-1.1-1.2-2C1.7 9.9.8 8.9.5 8.5c-.2-.4-.2-.6-.1-1 .1-.6.7-1.1 1.4-1.1.5 0 1 .4 1.4.7.2.2.5.6.7.8.2.2.2.3.4.5.2.3.3.5.2.1-.1-.5-.2-1.3-.4-2.1-.1-.6-.2-.7-.3-1.1-.1-.5-.2-.8-.3-1.3-.1-.3-.2-1.1-.3-1.5-.1-.5-.1-1.4.3-1.8.3-.3.9-.4 1.3-.2.5.3.8 1 .9 1.3.2.5.4 1.2.5 2 .2 1 .5 2.5.5 2.8 0-.4-.1-1.1 0-1.5.1-.3.3-.7.7-.8.3-.1.6-.1.9-.1.3.1.6.3.8.5.4.6.4 1.9.4 1.8.1-.4.1-1.2.3-1.6.1-.2.5-.4.7-.5.3-.1.7-.1 1 0 .2 0 .6.3.7.5.2.3.3 1.3.4 1.7 0 .1.1-.4.3-.7.4-.6 1.8-.8 1.9.6v2.3c0 .4-.1 1.3-.2 1.7-.1.3-.4 1-.7 1.4 0 0-1.1 1.2-1.2 1.8-.1.6-.1.6-.1 1s.1.9.1.9-.8.1-1.2 0c-.4-.1-.9-.8-1-1.1-.2-.3-.5-.3-.7 0-.2.4-.7 1.1-1.1 1.1-.7.1-2.1 0-3.1 0 0 0 .2-1-.2-1.4l-1.1-1.1-1.1-.7Z" stroke="#000" stroke-width=".75" stroke-linecap="round" stroke-linejoin="round"/>
        <path d="M11.5 12.7V9.3M9.5 12.7l-.1-3.4M7.5 9.3v3.4" stroke="#000" stroke-width=".75" stroke-linecap="round"/>
    </g>
    <defs>
        <clipPath id="bta">
            <path fill="#fff" d="M0 0h15.2v16H0z"/>
        </clipPath>
    </defs>
</svg><svg fill="none" viewBox="0 0 15 16" id="svgicons--34521_137" xmlns="http://www.w3.org/2000/svg">
    <path d="M2.866 12.004c-.3-.4-.6-1.1-1.2-2-.3-.5-1.2-1.5-1.5-1.9-.2-.4-.2-.6-.1-1 .1-.6.7-1.1 1.4-1.1.5 0 1 .4 1.4.7.2.2.5.6.7.8.2.2.2.3.4.5.2.3.3.5.2.1-.1-.5-.2-1.3-.4-2.1-.1-.6-.2-.7-.3-1.1-.1-.5-.2-.8-.3-1.3-.1-.3-.2-1.1-.3-1.5-.1-.5-.1-1.4.3-1.8.3-.3.9-.4 1.3-.2.5.3.8 1 .9 1.3.2.5.4 1.2.5 2 .2 1 .5 2.5.5 2.8 0-.4-.1-1.1 0-1.5.1-.3.3-.7.7-.8.3-.1.6-.1.9-.1.3.1.6.3.8.5.4.6.4 1.9.4 1.8.1-.4.1-1.2.3-1.6.1-.2.5-.4.7-.5.3-.1.7-.1 1 0 .2 0 .6.3.7.5.2.3.3 1.3.4 1.7 0 .1.1-.4.3-.7.4-.6 1.8-.8 1.9.6v2.3c0 .4-.1 1.3-.2 1.7-.1.3-.4 1-.7 1.4 0 0-1.1 1.2-1.2 1.8-.1.6-.1.6-.1 1s.1.9.1.9-.8.1-1.2 0c-.4-.1-.9-.8-1-1.1-.2-.3-.5-.3-.7 0-.2.4-.7 1.1-1.1 1.1-.7.1-2.1 0-3.1 0 0 0 .2-1-.2-1.4l-1.1-1.1-1.1-.7Z" fill="#fff"/>
</svg><svg fill="none" viewBox="0 0 16 16" id="svgicons--34521_138" xmlns="http://www.w3.org/2000/svg">
    <path d="M3.2 12.38c-.3-.4-.6-1.1-1.2-2C1.7 9.878.8 8.878.5 8.478c-.2-.4-.2-.6-.1-1 .1-.6.7-1.1 1.4-1.1.5 0 1 .4 1.4.7.2.2.5.6.7.8.2.2.2.3.4.5.2.3.3.5.2.1-.1-.5-.2-1.3-.4-2.1-.1-.6-.2-.7-.3-1.1-.1-.5-.2-.8-.3-1.3-.1-.3-.2-1.1-.3-1.5-.1-.5-.1-1.4.3-1.8.3-.3.9-.4 1.3-.2.5.3.8 1 .9 1.3.2.5.4 1.2.5 2 .2 1 .5 2.5.5 2.8 0-.4-.1-1.1 0-1.5.1-.3.3-.7.7-.8.3-.1.6-.1.9-.1.3.1.6.3.8.5.4.6.4 1.9.4 1.8.1-.4.1-1.2.3-1.6.1-.2.5-.4.7-.5.3-.1.7-.1 1 0 .2 0 .6.3.7.5.2.3.3 1.3.4 1.7 0 .1.1-.4.3-.7.4-.6 1.8-.8 1.9.6v2.3c0 .4-.1 1.3-.2 1.7-.1.3-.4 1-.7 1.4 0 0-1.1 1.2-1.2 1.8-.1.6-.1.6-.1 1s.1.9.1.9-.8.1-1.2 0c-.4-.1-.9-.8-1-1.1-.2-.3-.5-.3-.7 0-.2.4-.7 1.1-1.1 1.1-.7.1-2.1 0-3.1 0 0 0 .2-1-.2-1.4l-1.1-1.1-1.1-.7Z" stroke="#000" stroke-width=".75" stroke-linecap="round" stroke-linejoin="round"/>
</svg><svg fill="none" viewBox="0 0 1 5" id="svgicons--34521_139" xmlns="http://www.w3.org/2000/svg">
    <path d="M.375 3.775v-3.4" stroke="#000" stroke-width=".75" stroke-linecap="round"/>
</svg><svg fill="none" viewBox="0 0 1 5" id="svgicons--34521_140" xmlns="http://www.w3.org/2000/svg">
    <path d="m.475 3.775-.1-3.4" stroke="#000" stroke-width=".75" stroke-linecap="round"/>
</svg><svg fill="none" viewBox="0 0 1 5" id="svgicons--34521_141" xmlns="http://www.w3.org/2000/svg">
    <path d="M.375.375v3.4" stroke="#000" stroke-width=".75" stroke-linecap="round"/>
</svg><svg fill="none" viewBox="0 0 15 15" id="svgicons--34521_79" xmlns="http://www.w3.org/2000/svg">
    <path d="M13.02.293a1 1 0 0 1 1.414 1.414L8.778 7.363l5.657 5.657a1.001 1.001 0 0 1-1.414 1.415L7.363 8.777l-5.656 5.658A1 1 0 1 1 .293 13.02l5.656-5.657L.293 1.707A1 1 0 0 1 1.708.293l5.656 5.656L13.02.293Z" fill="#9797AF"/>
</svg><svg fill="none" viewBox="0 0 20 20" id="svgicons--34521_95" xmlns="http://www.w3.org/2000/svg">
    <circle cx="10" cy="10" r="7.5" fill="#CB11AB" stroke="#CB11AB"/>
    <path d="M10 13a3 3 0 1 0 0-6 3 3 0 0 0 0 6Z" fill="#fff"/>
</svg><svg fill="none" viewBox="0 0 16 16" id="svgicons--34521_96" xmlns="http://www.w3.org/2000/svg">
    <circle cx="8" cy="8" r="7.5" fill="#CB11AB" stroke="#CB11AB"/>
</svg><svg fill="none" viewBox="0 0 6 6" id="svgicons--34521_97" xmlns="http://www.w3.org/2000/svg">
    <path d="M3 6a3 3 0 1 0 0-6 3 3 0 0 0 0 6Z" fill="#fff"/>
</svg><svg fill="none" viewBox="0 0 20 20" id="svgicons--4907_8" xmlns="http://www.w3.org/2000/svg">
    <path fill-rule="evenodd" clip-rule="evenodd" d="M2.5 5a.5.5 0 0 1 .5-.5h14a.5.5 0 0 1 0 1H3a.5.5 0 0 1-.5-.5Z" fill="#000"/>
    <path fill-rule="evenodd" clip-rule="evenodd" d="M3.458 4.5h13.048l-.865 11.193A2.5 2.5 0 0 1 13.15 18H6.846a2.5 2.5 0 0 1-2.492-2.3L3.458 4.5Zm1.084 1 .81 10.12A1.5 1.5 0 0 0 6.845 17h6.303a1.5 1.5 0 0 0 1.495-1.384L15.426 5.5H4.542Z" fill="#000"/>
    <path fill-rule="evenodd" clip-rule="evenodd" d="M13 5.5H7V3.469C7 2.658 7.658 2 8.469 2h3.062C12.342 2 13 2.658 13 3.469V5.5ZM8.469 3A.469.469 0 0 0 8 3.469V4.5h4V3.469A.469.469 0 0 0 11.531 3H8.47Z" fill="#000"/>
</svg><svg fill="none" viewBox="0 0 15 16" id="svgicons--4907_9" xmlns="http://www.w3.org/2000/svg">
    <path fill-rule="evenodd" clip-rule="evenodd" d="M0 3a.5.5 0 0 1 .5-.5h14a.5.5 0 0 1 0 1H.5A.5.5 0 0 1 0 3Z" fill="#000"/>
    <path fill-rule="evenodd" clip-rule="evenodd" d="M.958 2.5h13.048l-.865 11.193A2.5 2.5 0 0 1 10.65 16H4.346a2.5 2.5 0 0 1-2.492-2.3L.958 2.5Zm1.084 1 .81 10.12A1.5 1.5 0 0 0 4.345 15h6.303a1.5 1.5 0 0 0 1.495-1.384L12.926 3.5H2.042Z" fill="#000"/>
    <path fill-rule="evenodd" clip-rule="evenodd" d="M10.5 3.5h-6V1.469C4.5.658 5.158 0 5.969 0H9.03C9.842 0 10.5.658 10.5 1.469V3.5ZM5.969 1a.469.469 0 0 0-.469.469V2.5h4V1.469A.469.469 0 0 0 9.031 1H5.97Z" fill="#000"/>
</svg><svg fill="none" viewBox="0 0 22 22" id="svgicons--7_2001" xmlns="http://www.w3.org/2000/svg">
    <g clip-path="url(#cfa)" fill-rule="evenodd" clip-rule="evenodd">
        <path d="M.654 3.276C0 4.56 0 6.24 0 9.6v2.8c0 3.36 0 5.04.654 6.324a6 6 0 0 0 2.622 2.622C4.56 22 6.24 22 9.6 22h2.8c3.36 0 5.04 0 6.324-.654a6 6 0 0 0 2.622-2.622C22 17.44 22 15.76 22 12.4V9.6c0-3.36 0-5.04-.654-6.324A6 6 0 0 0 18.724.654C17.44 0 15.76 0 12.4 0H9.6C6.24 0 4.56 0 3.276.654A6 6 0 0 0 .654 3.276Z" fill="#CB11AB"/>
        <path d="m17.735 6.68-8.148 8.804-4.33-4.816 1.488-1.337 2.863 3.185 6.66-7.195 1.467 1.358Z" fill="#fff"/>
    </g>
    <defs>
        <clipPath id="cfa">
            <path fill="#fff" d="M0 0h22v22H0z"/>
        </clipPath>
    </defs>
</svg><svg fill="none" viewBox="0 0 22 22" id="svgicons--7_2002" xmlns="http://www.w3.org/2000/svg">
    <path fill-rule="evenodd" clip-rule="evenodd" d="M.654 3.276C0 4.56 0 6.24 0 9.6v2.8c0 3.36 0 5.04.654 6.324a6 6 0 0 0 2.622 2.622C4.56 22 6.24 22 9.6 22h2.8c3.36 0 5.04 0 6.324-.654a6 6 0 0 0 2.622-2.622C22 17.44 22 15.76 22 12.4V9.6c0-3.36 0-5.04-.654-6.324A6 6 0 0 0 18.724.654C17.44 0 15.76 0 12.4 0H9.6C6.24 0 4.56 0 3.276.654A6 6 0 0 0 .654 3.276Z" fill="#CB11AB"/>
</svg><svg fill="none" viewBox="0 0 13 11" id="svgicons--7_2003" xmlns="http://www.w3.org/2000/svg">
    <path fill-rule="evenodd" clip-rule="evenodd" d="m12.478 1.358-8.15 8.805L0 5.347 1.487 4.01 4.35 7.195 11.01 0l1.468 1.358Z" fill="#fff"/>
</svg><svg fill="none" viewBox="0 0 20 20" id="svgicons--7_2006" xmlns="http://www.w3.org/2000/svg">
    <path d="M17.342 14.912a.97.97 0 0 1-1.378.014l-5.822-5.751a.2.2 0 0 0-.283.001l-5.706 5.74A1.009 1.009 0 0 1 2.714 13.5l6.57-6.752a1 1 0 0 1 1.433 0l6.625 6.81a.97.97 0 0 1 0 1.353Z" fill="#9797AF"/>
</svg><svg fill="none" viewBox="0 0 16 9" id="svgicons--7_2007" xmlns="http://www.w3.org/2000/svg">
    <path d="M14.913 8.465a.97.97 0 0 1-1.377.014L7.713 2.728a.2.2 0 0 0-.282.001L1.724 8.47A1.009 1.009 0 0 1 .286 7.054L6.855.303a1 1 0 0 1 1.433 0l6.625 6.809a.97.97 0 0 1 0 1.353Z" fill="#9797AF"/>
</svg><svg fill="none" viewBox="0 0 22 22" id="svgicons--7_2013" xmlns="http://www.w3.org/2000/svg">
    <g clip-path="url(#cka)" fill-rule="evenodd" clip-rule="evenodd">
        <path d="M.654 3.276C0 4.56 0 6.24 0 9.6v2.8c0 3.36 0 5.04.654 6.324a6 6 0 0 0 2.622 2.622C4.56 22 6.24 22 9.6 22h2.8c3.36 0 5.04 0 6.324-.654a6 6 0 0 0 2.622-2.622C22 17.44 22 15.76 22 12.4V9.6c0-3.36 0-5.04-.654-6.324A6 6 0 0 0 18.724.654C17.44 0 15.76 0 12.4 0H9.6C6.24 0 4.56 0 3.276.654A6 6 0 0 0 .654 3.276Z" fill="#CB11AB"/>
        <path d="m17.735 6.68-8.148 8.804-4.33-4.816 1.488-1.337 2.863 3.185 6.66-7.195 1.467 1.358Z" fill="#fff"/>
    </g>
    <defs>
        <clipPath id="cka">
            <path fill="#fff" d="M0 0h22v22H0z"/>
        </clipPath>
    </defs>
</svg><svg fill="none" viewBox="0 0 22 22" id="svgicons--7_2014" xmlns="http://www.w3.org/2000/svg">
    <path fill-rule="evenodd" clip-rule="evenodd" d="M.654 3.276C0 4.56 0 6.24 0 9.6v2.8c0 3.36 0 5.04.654 6.324a6 6 0 0 0 2.622 2.622C4.56 22 6.24 22 9.6 22h2.8c3.36 0 5.04 0 6.324-.654a6 6 0 0 0 2.622-2.622C22 17.44 22 15.76 22 12.4V9.6c0-3.36 0-5.04-.654-6.324A6 6 0 0 0 18.724.654C17.44 0 15.76 0 12.4 0H9.6C6.24 0 4.56 0 3.276.654A6 6 0 0 0 .654 3.276Z" fill="#CB11AB"/>
</svg><svg fill="none" viewBox="0 0 13 11" id="svgicons--7_2015" xmlns="http://www.w3.org/2000/svg">
    <path fill-rule="evenodd" clip-rule="evenodd" d="m12.478 1.358-8.15 8.805L0 5.347 1.487 4.01 4.35 7.195 11.01 0l1.468 1.358Z" fill="#fff"/>
</svg><svg fill="none" viewBox="0 0 20 20" id="svgicons--7_2027" xmlns="http://www.w3.org/2000/svg">
    <circle cx="10" cy="10" r="7.5" stroke="#9797AF"/>
    <path d="M9.889 7.587a.907.907 0 0 1-.64-.23.755.755 0 0 1-.249-.57.72.72 0 0 1 .249-.567c.166-.147.38-.22.64-.22.263 0 .477.073.64.22a.72.72 0 0 1 .248.566.74.74 0 0 1-.249.576c-.162.15-.376.225-.64.225Zm.761 5.79H9.107v-5h1.543v5Z" fill="#9797AF"/>
</svg><svg fill="none" viewBox="0 0 16 16" id="svgicons--7_2028" xmlns="http://www.w3.org/2000/svg">
    <circle cx="8" cy="8" r="7.5" stroke="#9797AF"/>
</svg><svg fill="none" viewBox="0 0 2 8" id="svgicons--7_2029" xmlns="http://www.w3.org/2000/svg">
    <path d="M.889 1.587a.907.907 0 0 1-.64-.23A.755.755 0 0 1 0 .787.72.72 0 0 1 .249.22C.415.073.629 0 .889 0c.263 0 .477.073.64.22a.72.72 0 0 1 .248.566.74.74 0 0 1-.249.576c-.162.15-.376.225-.64.225Zm.761 5.79H.107v-5H1.65v5Z" fill="#9797AF"/>
</svg><svg fill="none" viewBox="0 0 20 20" id="svgicons--7_2040" xmlns="http://www.w3.org/2000/svg">
    <path fill-rule="evenodd" clip-rule="evenodd" d="M3.034 4.059c-.768.693-1.267 1.774-1.039 3.37.228 1.599 1.27 3.256 2.81 4.919 1.454 1.57 3.305 3.096 5.195 4.526 1.89-1.43 3.741-2.956 5.196-4.526 1.54-1.663 2.58-3.32 2.809-4.919.228-1.596-.271-2.677-1.04-3.37C16.178 3.346 15.056 3 14 3c-1.868 0-2.908 1.085-3.482 1.684-.06.063-.115.12-.165.17a.5.5 0 0 1-.707 0 11.53 11.53 0 0 1-.164-.17C8.908 4.084 7.868 3 6 3c-1.055 0-2.177.346-2.966 1.059Zm-.67-.743C3.374 2.404 4.752 2 6 2c2.071 0 3.345 1.113 4 1.779C10.655 3.113 11.929 2 14 2c1.248 0 2.626.404 3.636 1.316 1.031.932 1.63 2.351 1.359 4.255-.272 1.901-1.48 3.744-3.066 5.456-1.594 1.722-3.623 3.368-5.629 4.873a.5.5 0 0 1-.6 0c-2.006-1.505-4.036-3.151-5.63-4.873-1.585-1.712-2.793-3.555-3.065-5.456-.272-1.904.328-3.323 1.359-4.255Z" fill="#000"/>
</svg><svg fill="none" viewBox="0 0 19 16" id="svgicons--7_2041" xmlns="http://www.w3.org/2000/svg">
    <path fill-rule="evenodd" clip-rule="evenodd" d="M2.094 2.059c-.768.693-1.267 1.774-1.039 3.37.229 1.599 1.27 3.256 2.81 4.919 1.454 1.57 3.305 3.096 5.195 4.526 1.89-1.43 3.742-2.956 5.196-4.526 1.54-1.663 2.581-3.32 2.81-4.919.228-1.596-.272-2.677-1.04-3.37C15.237 1.346 14.116 1 13.06 1c-1.868 0-2.907 1.085-3.482 1.684-.06.063-.114.12-.164.17a.5.5 0 0 1-.707 0c-.05-.05-.105-.107-.164-.17C7.968 2.084 6.928 1 5.06 1c-1.055 0-2.176.346-2.966 1.059Zm-.67-.743C2.434.404 3.812 0 5.06 0c2.072 0 3.346 1.113 4 1.779.655-.666 1.93-1.779 4-1.779 1.248 0 2.627.404 3.637 1.316 1.03.932 1.63 2.351 1.358 4.255-.271 1.901-1.48 3.744-3.065 5.456-1.594 1.722-3.623 3.368-5.63 4.873a.5.5 0 0 1-.6 0c-2.006-1.505-4.035-3.152-5.629-4.873C1.545 9.315.337 7.472.065 5.571c-.272-1.904.328-3.323 1.36-4.255Z" fill="#000"/>
</svg><svg fill="none" viewBox="0 0 20 20" id="svgicons--7_2042" xmlns="http://www.w3.org/2000/svg">
    <path fill-rule="evenodd" clip-rule="evenodd" d="M2.5 5a.5.5 0 0 1 .5-.5h14a.5.5 0 0 1 0 1H3a.5.5 0 0 1-.5-.5Z" fill="#000"/>
    <path fill-rule="evenodd" clip-rule="evenodd" d="M3.458 4.5h13.048l-.865 11.193A2.5 2.5 0 0 1 13.15 18H6.846a2.5 2.5 0 0 1-2.492-2.3L3.458 4.5Zm1.084 1 .81 10.12A1.5 1.5 0 0 0 6.845 17h6.303a1.5 1.5 0 0 0 1.495-1.384L15.426 5.5H4.542Z" fill="#000"/>
    <path fill-rule="evenodd" clip-rule="evenodd" d="M13 5.5H7V3.469C7 2.658 7.658 2 8.469 2h3.062C12.342 2 13 2.658 13 3.469V5.5ZM8.469 3A.469.469 0 0 0 8 3.469V4.5h4V3.469A.469.469 0 0 0 11.531 3H8.47Z" fill="#000"/>
</svg><svg fill="none" viewBox="0 0 15 16" id="svgicons--7_2043" xmlns="http://www.w3.org/2000/svg">
    <path fill-rule="evenodd" clip-rule="evenodd" d="M0 3a.5.5 0 0 1 .5-.5h14a.5.5 0 0 1 0 1H.5A.5.5 0 0 1 0 3Z" fill="#000"/>
    <path fill-rule="evenodd" clip-rule="evenodd" d="M.958 2.5h13.048l-.865 11.193A2.5 2.5 0 0 1 10.65 16H4.346a2.5 2.5 0 0 1-2.492-2.3L.958 2.5Zm1.084 1 .81 10.12A1.5 1.5 0 0 0 4.345 15h6.303a1.5 1.5 0 0 0 1.495-1.384L12.926 3.5H2.042Z" fill="#000"/>
    <path fill-rule="evenodd" clip-rule="evenodd" d="M10.5 3.5h-6V1.469C4.5.658 5.158 0 5.969 0H9.03C9.842 0 10.5.658 10.5 1.469V3.5ZM5.969 1a.469.469 0 0 0-.469.469V2.5h4V1.469A.469.469 0 0 0 9.031 1H5.97Z" fill="#000"/>
</svg><svg fill="none" viewBox="0 0 56 1" id="svgicons--7_2051" xmlns="http://www.w3.org/2000/svg">
    <path d="M.5.5h55" stroke="#000" stroke-opacity=".2" stroke-linecap="square" stroke-dasharray="4 2"/>
</svg><svg fill="none" viewBox="0 0 56 1" id="svgicons--7_2052" xmlns="http://www.w3.org/2000/svg">
    <path d="M.5.5h55" stroke="#9797AF" stroke-linecap="square"/>
</svg><svg fill="none" viewBox="0 0 891 1" id="svgicons--7_2053" xmlns="http://www.w3.org/2000/svg">
    <path fill-rule="evenodd" clip-rule="evenodd" d="M891 1H0V0h891v1Z" fill="#000" fill-opacity=".1"/>
</svg><svg fill="none" viewBox="0 0 22 22" id="svgicons--7_2058" xmlns="http://www.w3.org/2000/svg">
    <g clip-path="url(#cxa)" fill-rule="evenodd" clip-rule="evenodd">
        <path d="M.654 3.276C0 4.56 0 6.24 0 9.6v2.8c0 3.36 0 5.04.654 6.324a6 6 0 0 0 2.622 2.622C4.56 22 6.24 22 9.6 22h2.8c3.36 0 5.04 0 6.324-.654a6 6 0 0 0 2.622-2.622C22 17.44 22 15.76 22 12.4V9.6c0-3.36 0-5.04-.654-6.324A6 6 0 0 0 18.724.654C17.44 0 15.76 0 12.4 0H9.6C6.24 0 4.56 0 3.276.654A6 6 0 0 0 .654 3.276Z" fill="#CB11AB"/>
        <path d="m17.735 6.68-8.148 8.804-4.33-4.816 1.488-1.337 2.863 3.185 6.66-7.195 1.467 1.358Z" fill="#fff"/>
    </g>
    <defs>
        <clipPath id="cxa">
            <path fill="#fff" d="M0 0h22v22H0z"/>
        </clipPath>
    </defs>
</svg><svg fill="none" viewBox="0 0 22 22" id="svgicons--7_2059" xmlns="http://www.w3.org/2000/svg">
    <path fill-rule="evenodd" clip-rule="evenodd" d="M.654 3.276C0 4.56 0 6.24 0 9.6v2.8c0 3.36 0 5.04.654 6.324a6 6 0 0 0 2.622 2.622C4.56 22 6.24 22 9.6 22h2.8c3.36 0 5.04 0 6.324-.654a6 6 0 0 0 2.622-2.622C22 17.44 22 15.76 22 12.4V9.6c0-3.36 0-5.04-.654-6.324A6 6 0 0 0 18.724.654C17.44 0 15.76 0 12.4 0H9.6C6.24 0 4.56 0 3.276.654A6 6 0 0 0 .654 3.276Z" fill="#CB11AB"/>
</svg><svg fill="none" viewBox="0 0 13 11" id="svgicons--7_2060" xmlns="http://www.w3.org/2000/svg">
    <path fill-rule="evenodd" clip-rule="evenodd" d="m12.478 1.358-8.15 8.805L0 5.347 1.487 4.01 4.35 7.195 11.01 0l1.468 1.358Z" fill="#fff"/>
</svg><svg fill="none" viewBox="0 0 20 20" id="svgicons--7_2073" xmlns="http://www.w3.org/2000/svg">
    <circle cx="10" cy="10" r="7.5" stroke="#9797AF"/>
    <path d="M9.889 7.587a.907.907 0 0 1-.64-.23.755.755 0 0 1-.249-.57.72.72 0 0 1 .249-.567c.166-.147.38-.22.64-.22.263 0 .477.073.64.22a.72.72 0 0 1 .248.566.74.74 0 0 1-.249.576c-.162.15-.376.225-.64.225Zm.761 5.79H9.107v-5h1.543v5Z" fill="#9797AF"/>
</svg><svg fill="none" viewBox="0 0 16 16" id="svgicons--7_2074" xmlns="http://www.w3.org/2000/svg">
    <circle cx="8" cy="8" r="7.5" stroke="#9797AF"/>
</svg><svg fill="none" viewBox="0 0 2 8" id="svgicons--7_2075" xmlns="http://www.w3.org/2000/svg">
    <path d="M.889 1.587a.907.907 0 0 1-.64-.23A.755.755 0 0 1 0 .787.72.72 0 0 1 .249.22C.415.073.629 0 .889 0c.263 0 .477.073.64.22a.72.72 0 0 1 .248.566.74.74 0 0 1-.249.576c-.162.15-.376.225-.64.225Zm.761 5.79H.107v-5H1.65v5Z" fill="#9797AF"/>
</svg><svg fill="none" viewBox="0 0 20 20" id="svgicons--7_2086" xmlns="http://www.w3.org/2000/svg">
    <path fill-rule="evenodd" clip-rule="evenodd" d="M3.034 4.059c-.768.693-1.267 1.774-1.039 3.37.228 1.599 1.27 3.256 2.81 4.919 1.454 1.57 3.305 3.096 5.195 4.526 1.89-1.43 3.741-2.956 5.196-4.526 1.54-1.663 2.58-3.32 2.809-4.919.228-1.596-.271-2.677-1.04-3.37C16.178 3.346 15.056 3 14 3c-1.868 0-2.908 1.085-3.482 1.684-.06.063-.115.12-.165.17a.5.5 0 0 1-.707 0 11.53 11.53 0 0 1-.164-.17C8.908 4.084 7.868 3 6 3c-1.055 0-2.177.346-2.966 1.059Zm-.67-.743C3.374 2.404 4.752 2 6 2c2.071 0 3.345 1.113 4 1.779C10.655 3.113 11.929 2 14 2c1.248 0 2.626.404 3.636 1.316 1.031.932 1.63 2.351 1.359 4.255-.272 1.901-1.48 3.744-3.066 5.456-1.594 1.722-3.623 3.368-5.629 4.873a.5.5 0 0 1-.6 0c-2.006-1.505-4.036-3.151-5.63-4.873-1.585-1.712-2.793-3.555-3.065-5.456-.272-1.904.328-3.323 1.359-4.255Z" fill="#000"/>
</svg><svg fill="none" viewBox="0 0 19 16" id="svgicons--7_2087" xmlns="http://www.w3.org/2000/svg">
    <path fill-rule="evenodd" clip-rule="evenodd" d="M2.094 2.059c-.768.693-1.267 1.774-1.039 3.37.229 1.599 1.27 3.256 2.81 4.919 1.454 1.57 3.305 3.096 5.195 4.526 1.89-1.43 3.742-2.956 5.196-4.526 1.54-1.663 2.581-3.32 2.81-4.919.228-1.596-.272-2.677-1.04-3.37C15.237 1.346 14.116 1 13.06 1c-1.868 0-2.907 1.085-3.482 1.684-.06.063-.114.12-.164.17a.5.5 0 0 1-.707 0c-.05-.05-.105-.107-.164-.17C7.968 2.084 6.928 1 5.06 1c-1.055 0-2.176.346-2.966 1.059Zm-.67-.743C2.434.404 3.812 0 5.06 0c2.072 0 3.346 1.113 4 1.779.655-.666 1.93-1.779 4-1.779 1.248 0 2.627.404 3.637 1.316 1.03.932 1.63 2.351 1.358 4.255-.271 1.901-1.48 3.744-3.065 5.456-1.594 1.722-3.623 3.368-5.63 4.873a.5.5 0 0 1-.6 0c-2.006-1.505-4.035-3.152-5.629-4.873C1.545 9.315.337 7.472.065 5.571c-.272-1.904.328-3.323 1.36-4.255Z" fill="#000"/>
</svg><svg fill="none" viewBox="0 0 20 20" id="svgicons--7_2088" xmlns="http://www.w3.org/2000/svg">
    <path fill-rule="evenodd" clip-rule="evenodd" d="M2.5 5a.5.5 0 0 1 .5-.5h14a.5.5 0 0 1 0 1H3a.5.5 0 0 1-.5-.5Z" fill="#000"/>
    <path fill-rule="evenodd" clip-rule="evenodd" d="M3.458 4.5h13.048l-.865 11.193A2.5 2.5 0 0 1 13.15 18H6.846a2.5 2.5 0 0 1-2.492-2.3L3.458 4.5Zm1.084 1 .81 10.12A1.5 1.5 0 0 0 6.845 17h6.303a1.5 1.5 0 0 0 1.495-1.384L15.426 5.5H4.542Z" fill="#000"/>
    <path fill-rule="evenodd" clip-rule="evenodd" d="M13 5.5H7V3.469C7 2.658 7.658 2 8.469 2h3.062C12.342 2 13 2.658 13 3.469V5.5ZM8.469 3A.469.469 0 0 0 8 3.469V4.5h4V3.469A.469.469 0 0 0 11.531 3H8.47Z" fill="#000"/>
</svg><svg fill="none" viewBox="0 0 15 16" id="svgicons--7_2089" xmlns="http://www.w3.org/2000/svg">
    <path fill-rule="evenodd" clip-rule="evenodd" d="M0 3a.5.5 0 0 1 .5-.5h14a.5.5 0 0 1 0 1H.5A.5.5 0 0 1 0 3Z" fill="#000"/>
    <path fill-rule="evenodd" clip-rule="evenodd" d="M.958 2.5h13.048l-.865 11.193A2.5 2.5 0 0 1 10.65 16H4.346a2.5 2.5 0 0 1-2.492-2.3L.958 2.5Zm1.084 1 .81 10.12A1.5 1.5 0 0 0 4.345 15h6.303a1.5 1.5 0 0 0 1.495-1.384L12.926 3.5H2.042Z" fill="#000"/>
    <path fill-rule="evenodd" clip-rule="evenodd" d="M10.5 3.5h-6V1.469C4.5.658 5.158 0 5.969 0H9.03C9.842 0 10.5.658 10.5 1.469V3.5ZM5.969 1a.469.469 0 0 0-.469.469V2.5h4V1.469A.469.469 0 0 0 9.031 1H5.97Z" fill="#000"/>
</svg><svg fill="none" viewBox="0 0 80 1" id="svgicons--7_2097" xmlns="http://www.w3.org/2000/svg">
    <path d="M.5.5h79" stroke="#000" stroke-opacity=".2" stroke-linecap="square" stroke-dasharray="4 2"/>
</svg><svg fill="none" viewBox="0 0 80 1" id="svgicons--7_2098" xmlns="http://www.w3.org/2000/svg">
    <path d="M.5.5h79" stroke="#9797AF" stroke-linecap="square"/>
</svg><svg fill="none" viewBox="0 0 22 22" id="svgicons--7_2104" xmlns="http://www.w3.org/2000/svg">
    <g clip-path="url(#dja)" fill-rule="evenodd" clip-rule="evenodd">
        <path d="M.654 3.276C0 4.56 0 6.24 0 9.6v2.8c0 3.36 0 5.04.654 6.324a6 6 0 0 0 2.622 2.622C4.56 22 6.24 22 9.6 22h2.8c3.36 0 5.04 0 6.324-.654a6 6 0 0 0 2.622-2.622C22 17.44 22 15.76 22 12.4V9.6c0-3.36 0-5.04-.654-6.324A6 6 0 0 0 18.724.654C17.44 0 15.76 0 12.4 0H9.6C6.24 0 4.56 0 3.276.654A6 6 0 0 0 .654 3.276Z" fill="#CB11AB"/>
        <path d="m17.735 6.68-8.148 8.804-4.33-4.816 1.488-1.337 2.863 3.185 6.66-7.195 1.467 1.358Z" fill="#fff"/>
    </g>
    <defs>
        <clipPath id="dja">
            <path fill="#fff" d="M0 0h22v22H0z"/>
        </clipPath>
    </defs>
</svg><svg fill="none" viewBox="0 0 22 22" id="svgicons--7_2105" xmlns="http://www.w3.org/2000/svg">
    <path fill-rule="evenodd" clip-rule="evenodd" d="M.654 3.276C0 4.56 0 6.24 0 9.6v2.8c0 3.36 0 5.04.654 6.324a6 6 0 0 0 2.622 2.622C4.56 22 6.24 22 9.6 22h2.8c3.36 0 5.04 0 6.324-.654a6 6 0 0 0 2.622-2.622C22 17.44 22 15.76 22 12.4V9.6c0-3.36 0-5.04-.654-6.324A6 6 0 0 0 18.724.654C17.44 0 15.76 0 12.4 0H9.6C6.24 0 4.56 0 3.276.654A6 6 0 0 0 .654 3.276Z" fill="#CB11AB"/>
</svg><svg fill="none" viewBox="0 0 13 11" id="svgicons--7_2106" xmlns="http://www.w3.org/2000/svg">
    <path fill-rule="evenodd" clip-rule="evenodd" d="m12.478 1.358-8.15 8.805L0 5.347 1.487 4.01 4.35 7.195 11.01 0l1.468 1.358Z" fill="#fff"/>
</svg><svg fill="none" viewBox="0 0 20 20" id="svgicons--7_2118" xmlns="http://www.w3.org/2000/svg">
    <circle cx="10" cy="10" r="7.5" stroke="#9797AF"/>
    <path d="M9.889 7.587a.907.907 0 0 1-.64-.23.755.755 0 0 1-.249-.57.72.72 0 0 1 .249-.567c.166-.147.38-.22.64-.22.263 0 .477.073.64.22a.72.72 0 0 1 .248.566.74.74 0 0 1-.249.576c-.162.15-.376.225-.64.225Zm.761 5.79H9.107v-5h1.543v5Z" fill="#9797AF"/>
</svg><svg fill="none" viewBox="0 0 16 16" id="svgicons--7_2119" xmlns="http://www.w3.org/2000/svg">
    <circle cx="8" cy="8" r="7.5" stroke="#9797AF"/>
</svg><svg fill="none" viewBox="0 0 2 8" id="svgicons--7_2120" xmlns="http://www.w3.org/2000/svg">
    <path d="M.889 1.587a.907.907 0 0 1-.64-.23A.755.755 0 0 1 0 .787.72.72 0 0 1 .249.22C.415.073.629 0 .889 0c.263 0 .477.073.64.22a.72.72 0 0 1 .248.566.74.74 0 0 1-.249.576c-.162.15-.376.225-.64.225Zm.761 5.79H.107v-5H1.65v5Z" fill="#9797AF"/>
</svg><svg fill="none" viewBox="0 0 20 20" id="svgicons--7_2133" xmlns="http://www.w3.org/2000/svg">
    <path fill-rule="evenodd" clip-rule="evenodd" d="M3.034 4.059c-.768.693-1.267 1.774-1.039 3.37.228 1.599 1.27 3.256 2.81 4.919 1.454 1.57 3.305 3.096 5.195 4.526 1.89-1.43 3.741-2.956 5.196-4.526 1.54-1.663 2.58-3.32 2.809-4.919.228-1.596-.271-2.677-1.04-3.37C16.178 3.346 15.056 3 14 3c-1.868 0-2.908 1.085-3.482 1.684-.06.063-.115.12-.165.17a.5.5 0 0 1-.707 0 11.53 11.53 0 0 1-.164-.17C8.908 4.084 7.868 3 6 3c-1.055 0-2.177.346-2.966 1.059Zm-.67-.743C3.374 2.404 4.752 2 6 2c2.071 0 3.345 1.113 4 1.779C10.655 3.113 11.929 2 14 2c1.248 0 2.626.404 3.636 1.316 1.031.932 1.63 2.351 1.359 4.255-.272 1.901-1.48 3.744-3.066 5.456-1.594 1.722-3.623 3.368-5.629 4.873a.5.5 0 0 1-.6 0c-2.006-1.505-4.036-3.151-5.63-4.873-1.585-1.712-2.793-3.555-3.065-5.456-.272-1.904.328-3.323 1.359-4.255Z" fill="#000"/>
</svg><svg fill="none" viewBox="0 0 19 16" id="svgicons--7_2134" xmlns="http://www.w3.org/2000/svg">
    <path fill-rule="evenodd" clip-rule="evenodd" d="M2.094 2.059c-.768.693-1.267 1.774-1.039 3.37.229 1.599 1.27 3.256 2.81 4.919 1.454 1.57 3.305 3.096 5.195 4.526 1.89-1.43 3.742-2.956 5.196-4.526 1.54-1.663 2.581-3.32 2.81-4.919.228-1.596-.272-2.677-1.04-3.37C15.237 1.346 14.116 1 13.06 1c-1.868 0-2.907 1.085-3.482 1.684-.06.063-.114.12-.164.17a.5.5 0 0 1-.707 0c-.05-.05-.105-.107-.164-.17C7.968 2.084 6.928 1 5.06 1c-1.055 0-2.176.346-2.966 1.059Zm-.67-.743C2.434.404 3.812 0 5.06 0c2.072 0 3.346 1.113 4 1.779.655-.666 1.93-1.779 4-1.779 1.248 0 2.627.404 3.637 1.316 1.03.932 1.63 2.351 1.358 4.255-.271 1.901-1.48 3.744-3.065 5.456-1.594 1.722-3.623 3.368-5.63 4.873a.5.5 0 0 1-.6 0c-2.006-1.505-4.035-3.152-5.629-4.873C1.545 9.315.337 7.472.065 5.571c-.272-1.904.328-3.323 1.36-4.255Z" fill="#000"/>
</svg><svg fill="none" viewBox="0 0 49 1" id="svgicons--7_2143" xmlns="http://www.w3.org/2000/svg">
    <path d="M.5.5h48" stroke="#000" stroke-opacity=".2" stroke-linecap="square" stroke-dasharray="4 2"/>
</svg><svg fill="none" viewBox="0 0 49 1" id="svgicons--7_2144" xmlns="http://www.w3.org/2000/svg">
    <path d="M.5.5h48" stroke="#9797AF" stroke-linecap="square"/>
</svg><svg fill="none" viewBox="0 0 20 20" id="svgicons--7_2150" xmlns="http://www.w3.org/2000/svg">
    <path d="M17.342 14.912a.97.97 0 0 1-1.378.014l-5.822-5.751a.2.2 0 0 0-.283.001l-5.706 5.74A1.009 1.009 0 0 1 2.714 13.5l6.57-6.752a1 1 0 0 1 1.433 0l6.625 6.81a.97.97 0 0 1 0 1.353Z" fill="#9797AF"/>
</svg><svg fill="none" viewBox="0 0 16 9" id="svgicons--7_2151" xmlns="http://www.w3.org/2000/svg">
    <path d="M14.913 8.465a.97.97 0 0 1-1.377.014L7.713 2.728a.2.2 0 0 0-.282.001L1.724 8.47A1.009 1.009 0 0 1 .286 7.054L6.855.303a1 1 0 0 1 1.433 0l6.625 6.809a.97.97 0 0 1 0 1.353Z" fill="#9797AF"/>
</svg><svg fill="none" viewBox="0 0 20 20" id="svgicons--7_2164" xmlns="http://www.w3.org/2000/svg">
    <path fill-rule="evenodd" clip-rule="evenodd" d="M3.034 4.059c-.768.693-1.267 1.774-1.039 3.37.228 1.599 1.27 3.256 2.81 4.919 1.454 1.57 3.305 3.096 5.195 4.526 1.89-1.43 3.741-2.956 5.196-4.526 1.54-1.663 2.58-3.32 2.809-4.919.228-1.596-.271-2.677-1.04-3.37C16.178 3.346 15.056 3 14 3c-1.868 0-2.908 1.085-3.482 1.684-.06.063-.115.12-.165.17a.5.5 0 0 1-.707 0 11.53 11.53 0 0 1-.164-.17C8.908 4.084 7.868 3 6 3c-1.055 0-2.177.346-2.966 1.059Zm-.67-.743C3.374 2.404 4.752 2 6 2c2.071 0 3.345 1.113 4 1.779C10.655 3.113 11.929 2 14 2c1.248 0 2.626.404 3.636 1.316 1.031.932 1.63 2.351 1.359 4.255-.272 1.901-1.48 3.744-3.066 5.456-1.594 1.722-3.623 3.368-5.629 4.873a.5.5 0 0 1-.6 0c-2.006-1.505-4.036-3.151-5.63-4.873-1.585-1.712-2.793-3.555-3.065-5.456-.272-1.904.328-3.323 1.359-4.255Z" fill="#000"/>
</svg><svg fill="none" viewBox="0 0 19 16" id="svgicons--7_2165" xmlns="http://www.w3.org/2000/svg">
    <path fill-rule="evenodd" clip-rule="evenodd" d="M2.094 2.059c-.768.693-1.267 1.774-1.039 3.37.229 1.599 1.27 3.256 2.81 4.919 1.454 1.57 3.305 3.096 5.195 4.526 1.89-1.43 3.742-2.956 5.196-4.526 1.54-1.663 2.581-3.32 2.81-4.919.228-1.596-.272-2.677-1.04-3.37C15.237 1.346 14.116 1 13.06 1c-1.868 0-2.907 1.085-3.482 1.684-.06.063-.114.12-.164.17a.5.5 0 0 1-.707 0c-.05-.05-.105-.107-.164-.17C7.968 2.084 6.928 1 5.06 1c-1.055 0-2.176.346-2.966 1.059Zm-.67-.743C2.434.404 3.812 0 5.06 0c2.072 0 3.346 1.113 4 1.779.655-.666 1.93-1.779 4-1.779 1.248 0 2.627.404 3.637 1.316 1.03.932 1.63 2.351 1.358 4.255-.271 1.901-1.48 3.744-3.065 5.456-1.594 1.722-3.623 3.368-5.63 4.873a.5.5 0 0 1-.6 0c-2.006-1.505-4.035-3.152-5.629-4.873C1.545 9.315.337 7.472.065 5.571c-.272-1.904.328-3.323 1.36-4.255Z" fill="#000"/>
</svg><svg fill="none" viewBox="0 0 20 20" id="svgicons--7_2166" xmlns="http://www.w3.org/2000/svg">
    <path fill-rule="evenodd" clip-rule="evenodd" d="M2.5 5a.5.5 0 0 1 .5-.5h14a.5.5 0 0 1 0 1H3a.5.5 0 0 1-.5-.5Z" fill="#000"/>
    <path fill-rule="evenodd" clip-rule="evenodd" d="M3.458 4.5h13.048l-.865 11.193A2.5 2.5 0 0 1 13.15 18H6.846a2.5 2.5 0 0 1-2.492-2.3L3.458 4.5Zm1.084 1 .81 10.12A1.5 1.5 0 0 0 6.845 17h6.303a1.5 1.5 0 0 0 1.495-1.384L15.426 5.5H4.542Z" fill="#000"/>
    <path fill-rule="evenodd" clip-rule="evenodd" d="M13 5.5H7V3.469C7 2.658 7.658 2 8.469 2h3.062C12.342 2 13 2.658 13 3.469V5.5ZM8.469 3A.469.469 0 0 0 8 3.469V4.5h4V3.469A.469.469 0 0 0 11.531 3H8.47Z" fill="#000"/>
</svg><svg fill="none" viewBox="0 0 15 16" id="svgicons--7_2167" xmlns="http://www.w3.org/2000/svg">
    <path fill-rule="evenodd" clip-rule="evenodd" d="M0 3a.5.5 0 0 1 .5-.5h14a.5.5 0 0 1 0 1H.5A.5.5 0 0 1 0 3Z" fill="#000"/>
    <path fill-rule="evenodd" clip-rule="evenodd" d="M.958 2.5h13.048l-.865 11.193A2.5 2.5 0 0 1 10.65 16H4.346a2.5 2.5 0 0 1-2.492-2.3L.958 2.5Zm1.084 1 .81 10.12A1.5 1.5 0 0 0 4.345 15h6.303a1.5 1.5 0 0 0 1.495-1.384L12.926 3.5H2.042Z" fill="#000"/>
    <path fill-rule="evenodd" clip-rule="evenodd" d="M10.5 3.5h-6V1.469C4.5.658 5.158 0 5.969 0H9.03C9.842 0 10.5.658 10.5 1.469V3.5ZM5.969 1a.469.469 0 0 0-.469.469V2.5h4V1.469A.469.469 0 0 0 9.031 1H5.97Z" fill="#000"/>
</svg><svg fill="none" viewBox="0 0 891 1" id="svgicons--7_2168" xmlns="http://www.w3.org/2000/svg">
    <path fill-rule="evenodd" clip-rule="evenodd" d="M891 1H0V0h891v1Z" fill="#000" fill-opacity=".1"/>
</svg><svg fill="none" viewBox="0 0 20 20" id="svgicons--7_2187" xmlns="http://www.w3.org/2000/svg">
    <path fill-rule="evenodd" clip-rule="evenodd" d="M3.034 4.059c-.768.693-1.267 1.774-1.039 3.37.228 1.599 1.27 3.256 2.81 4.919 1.454 1.57 3.305 3.096 5.195 4.526 1.89-1.43 3.741-2.956 5.196-4.526 1.54-1.663 2.58-3.32 2.809-4.919.228-1.596-.271-2.677-1.04-3.37C16.178 3.346 15.056 3 14 3c-1.868 0-2.908 1.085-3.482 1.684-.06.063-.115.12-.165.17a.5.5 0 0 1-.707 0 11.53 11.53 0 0 1-.164-.17C8.908 4.084 7.868 3 6 3c-1.055 0-2.177.346-2.966 1.059Zm-.67-.743C3.374 2.404 4.752 2 6 2c2.071 0 3.345 1.113 4 1.779C10.655 3.113 11.929 2 14 2c1.248 0 2.626.404 3.636 1.316 1.031.932 1.63 2.351 1.359 4.255-.272 1.901-1.48 3.744-3.066 5.456-1.594 1.722-3.623 3.368-5.629 4.873a.5.5 0 0 1-.6 0c-2.006-1.505-4.036-3.151-5.63-4.873-1.585-1.712-2.793-3.555-3.065-5.456-.272-1.904.328-3.323 1.359-4.255Z" fill="#000"/>
</svg><svg fill="none" viewBox="0 0 19 16" id="svgicons--7_2188" xmlns="http://www.w3.org/2000/svg">
    <path fill-rule="evenodd" clip-rule="evenodd" d="M2.094 2.059c-.768.693-1.267 1.774-1.039 3.37.229 1.599 1.27 3.256 2.81 4.919 1.454 1.57 3.305 3.096 5.195 4.526 1.89-1.43 3.742-2.956 5.196-4.526 1.54-1.663 2.581-3.32 2.81-4.919.228-1.596-.272-2.677-1.04-3.37C15.237 1.346 14.116 1 13.06 1c-1.868 0-2.907 1.085-3.482 1.684-.06.063-.114.12-.164.17a.5.5 0 0 1-.707 0c-.05-.05-.105-.107-.164-.17C7.968 2.084 6.928 1 5.06 1c-1.055 0-2.176.346-2.966 1.059Zm-.67-.743C2.434.404 3.812 0 5.06 0c2.072 0 3.346 1.113 4 1.779.655-.666 1.93-1.779 4-1.779 1.248 0 2.627.404 3.637 1.316 1.03.932 1.63 2.351 1.358 4.255-.271 1.901-1.48 3.744-3.065 5.456-1.594 1.722-3.623 3.368-5.63 4.873a.5.5 0 0 1-.6 0c-2.006-1.505-4.035-3.152-5.629-4.873C1.545 9.315.337 7.472.065 5.571c-.272-1.904.328-3.323 1.36-4.255Z" fill="#000"/>
</svg><svg fill="none" viewBox="0 0 20 20" id="svgicons--7_2189" xmlns="http://www.w3.org/2000/svg">
    <path fill-rule="evenodd" clip-rule="evenodd" d="M2.5 5a.5.5 0 0 1 .5-.5h14a.5.5 0 0 1 0 1H3a.5.5 0 0 1-.5-.5Z" fill="#000"/>
    <path fill-rule="evenodd" clip-rule="evenodd" d="M3.458 4.5h13.048l-.865 11.193A2.5 2.5 0 0 1 13.15 18H6.846a2.5 2.5 0 0 1-2.492-2.3L3.458 4.5Zm1.084 1 .81 10.12A1.5 1.5 0 0 0 6.845 17h6.303a1.5 1.5 0 0 0 1.495-1.384L15.426 5.5H4.542Z" fill="#000"/>
    <path fill-rule="evenodd" clip-rule="evenodd" d="M13 5.5H7V3.469C7 2.658 7.658 2 8.469 2h3.062C12.342 2 13 2.658 13 3.469V5.5ZM8.469 3A.469.469 0 0 0 8 3.469V4.5h4V3.469A.469.469 0 0 0 11.531 3H8.47Z" fill="#000"/>
</svg><svg fill="none" viewBox="0 0 15 16" id="svgicons--7_2190" xmlns="http://www.w3.org/2000/svg">
    <path fill-rule="evenodd" clip-rule="evenodd" d="M0 3a.5.5 0 0 1 .5-.5h14a.5.5 0 0 1 0 1H.5A.5.5 0 0 1 0 3Z" fill="#000"/>
    <path fill-rule="evenodd" clip-rule="evenodd" d="M.958 2.5h13.048l-.865 11.193A2.5 2.5 0 0 1 10.65 16H4.346a2.5 2.5 0 0 1-2.492-2.3L.958 2.5Zm1.084 1 .81 10.12A1.5 1.5 0 0 0 4.345 15h6.303a1.5 1.5 0 0 0 1.495-1.384L12.926 3.5H2.042Z" fill="#000"/>
    <path fill-rule="evenodd" clip-rule="evenodd" d="M10.5 3.5h-6V1.469C4.5.658 5.158 0 5.969 0H9.03C9.842 0 10.5.658 10.5 1.469V3.5ZM5.969 1a.469.469 0 0 0-.469.469V2.5h4V1.469A.469.469 0 0 0 9.031 1H5.97Z" fill="#000"/>
</svg><svg fill="none" viewBox="0 0 20 20" id="svgicons--7_2200" xmlns="http://www.w3.org/2000/svg">
    <path fill-rule="evenodd" clip-rule="evenodd" d="M3.034 4.059c-.768.693-1.267 1.774-1.039 3.37.228 1.599 1.27 3.256 2.81 4.919 1.454 1.57 3.305 3.096 5.195 4.526 1.89-1.43 3.741-2.956 5.196-4.526 1.54-1.663 2.58-3.32 2.809-4.919.228-1.596-.271-2.677-1.04-3.37C16.178 3.346 15.056 3 14 3c-1.868 0-2.908 1.085-3.482 1.684-.06.063-.115.12-.165.17a.5.5 0 0 1-.707 0 11.53 11.53 0 0 1-.164-.17C8.908 4.084 7.868 3 6 3c-1.055 0-2.177.346-2.966 1.059Zm-.67-.743C3.374 2.404 4.752 2 6 2c2.071 0 3.345 1.113 4 1.779C10.655 3.113 11.929 2 14 2c1.248 0 2.626.404 3.636 1.316 1.031.932 1.63 2.351 1.359 4.255-.272 1.901-1.48 3.744-3.066 5.456-1.594 1.722-3.623 3.368-5.629 4.873a.5.5 0 0 1-.6 0c-2.006-1.505-4.036-3.151-5.63-4.873-1.585-1.712-2.793-3.555-3.065-5.456-.272-1.904.328-3.323 1.359-4.255Z" fill="#000"/>
</svg><svg fill="none" viewBox="0 0 19 16" id="svgicons--7_2201" xmlns="http://www.w3.org/2000/svg">
    <path fill-rule="evenodd" clip-rule="evenodd" d="M2.094 2.059c-.768.693-1.267 1.774-1.039 3.37.229 1.599 1.27 3.256 2.81 4.919 1.454 1.57 3.305 3.096 5.195 4.526 1.89-1.43 3.742-2.956 5.196-4.526 1.54-1.663 2.581-3.32 2.81-4.919.228-1.596-.272-2.677-1.04-3.37C15.237 1.346 14.116 1 13.06 1c-1.868 0-2.907 1.085-3.482 1.684-.06.063-.114.12-.164.17a.5.5 0 0 1-.707 0c-.05-.05-.105-.107-.164-.17C7.968 2.084 6.928 1 5.06 1c-1.055 0-2.176.346-2.966 1.059Zm-.67-.743C2.434.404 3.812 0 5.06 0c2.072 0 3.346 1.113 4 1.779.655-.666 1.93-1.779 4-1.779 1.248 0 2.627.404 3.637 1.316 1.03.932 1.63 2.351 1.358 4.255-.271 1.901-1.48 3.744-3.065 5.456-1.594 1.722-3.623 3.368-5.63 4.873a.5.5 0 0 1-.6 0c-2.006-1.505-4.035-3.152-5.629-4.873C1.545 9.315.337 7.472.065 5.571c-.272-1.904.328-3.323 1.36-4.255Z" fill="#000"/>
</svg><svg fill="none" viewBox="0 0 20 20" id="svgicons--7_2202" xmlns="http://www.w3.org/2000/svg">
    <path fill-rule="evenodd" clip-rule="evenodd" d="M2.5 5a.5.5 0 0 1 .5-.5h14a.5.5 0 0 1 0 1H3a.5.5 0 0 1-.5-.5Z" fill="#000"/>
    <path fill-rule="evenodd" clip-rule="evenodd" d="M3.458 4.5h13.048l-.865 11.193A2.5 2.5 0 0 1 13.15 18H6.846a2.5 2.5 0 0 1-2.492-2.3L3.458 4.5Zm1.084 1 .81 10.12A1.5 1.5 0 0 0 6.845 17h6.303a1.5 1.5 0 0 0 1.495-1.384L15.426 5.5H4.542Z" fill="#000"/>
    <path fill-rule="evenodd" clip-rule="evenodd" d="M13 5.5H7V3.469C7 2.658 7.658 2 8.469 2h3.062C12.342 2 13 2.658 13 3.469V5.5ZM8.469 3A.469.469 0 0 0 8 3.469V4.5h4V3.469A.469.469 0 0 0 11.531 3H8.47Z" fill="#000"/>
</svg><svg fill="none" viewBox="0 0 15 16" id="svgicons--7_2203" xmlns="http://www.w3.org/2000/svg">
    <path fill-rule="evenodd" clip-rule="evenodd" d="M0 3a.5.5 0 0 1 .5-.5h14a.5.5 0 0 1 0 1H.5A.5.5 0 0 1 0 3Z" fill="#000"/>
    <path fill-rule="evenodd" clip-rule="evenodd" d="M.958 2.5h13.048l-.865 11.193A2.5 2.5 0 0 1 10.65 16H4.346a2.5 2.5 0 0 1-2.492-2.3L.958 2.5Zm1.084 1 .81 10.12A1.5 1.5 0 0 0 4.345 15h6.303a1.5 1.5 0 0 0 1.495-1.384L12.926 3.5H2.042Z" fill="#000"/>
    <path fill-rule="evenodd" clip-rule="evenodd" d="M10.5 3.5h-6V1.469C4.5.658 5.158 0 5.969 0H9.03C9.842 0 10.5.658 10.5 1.469V3.5ZM5.969 1a.469.469 0 0 0-.469.469V2.5h4V1.469A.469.469 0 0 0 9.031 1H5.97Z" fill="#000"/>
</svg><svg fill="none" viewBox="0 0 12 12" id="svgicons--7_2235" xmlns="http://www.w3.org/2000/svg">
    <path fill-rule="evenodd" clip-rule="evenodd" d="M6.698 1.15a.755.755 0 0 0-1.396 0h1.396Zm-1.396 0L4.147 3.91l-2.955.256c-.673.059-.93.894-.432 1.329l2.245 1.964-.673 2.923c-.148.642.546 1.175 1.13.82L6 9.656l2.538 1.545c.585.358 1.278-.178 1.13-.818l-.673-2.924 2.245-1.964c.498-.435.24-1.27-.432-1.328L7.853 3.91 6.698 1.15" fill="#FF970D"/>
</svg><svg fill="none" viewBox="0 0 11 11" id="svgicons--7_2236" xmlns="http://www.w3.org/2000/svg">
    <path fill-rule="evenodd" clip-rule="evenodd" d="M6.198.466a.755.755 0 0 0-1.396 0h1.396Zm-1.396 0-1.155 2.76-2.955.257c-.673.058-.93.893-.432 1.328l2.245 1.965-.673 2.923c-.148.641.546 1.174 1.13.82L5.5 8.973l2.538 1.545c.585.357 1.278-.179 1.13-.819l-.673-2.923 2.245-1.964c.498-.436.24-1.27-.432-1.329l-2.955-.256L6.198.466" fill="#FF970D"/>
</svg><svg fill="none" viewBox="0 0 10 8" id="svgicons--7_2267" xmlns="http://www.w3.org/2000/svg">
    <path fill-rule="evenodd" clip-rule="evenodd" d="M.35 2.428a1 1 0 0 1 1.41.109l2.235 2.608L8.05.355a1 1 0 1 1 1.527 1.29l-4.433 5.24a1.5 1.5 0 0 1-2.284.008L.24 3.838a1 1 0 0 1 .108-1.41Z" fill="url(#eka)"/>
    <defs>
        <linearGradient id="eka" x1="2.366" y1=".273" x2="3.875" y2="8.633" gradientUnits="userSpaceOnUse">
            <stop stop-color="#0CD38B"/>
            <stop offset="1" stop-color="#0CB477"/>
        </linearGradient>
    </defs>
</svg><svg fill="none" viewBox="0 0 63 1" id="svgicons--7_2272" xmlns="http://www.w3.org/2000/svg">
    <path d="M.5.5h62" stroke="#0CB477" stroke-opacity=".2" stroke-linecap="square" stroke-dasharray="4 2"/>
</svg><svg fill="none" viewBox="0 0 30 10" id="svgicons--7_2283" xmlns="http://www.w3.org/2000/svg">
    <path d="m16.681 1.51-1.817 3.915h-.184V.667h-2.595v8.002h2.152c.584 0 1.103-.335 1.352-.854l1.827-3.904h.184V8.67h2.596V.667H18.01c-.562 0-1.092.335-1.33.843ZM6.972 1.716l-1.07 3.709h-.184l-1.081-3.71A1.46 1.46 0 0 0 3.23.668H.668v8.002h2.595V3.911h.184L4.939 8.67h1.73l1.493-4.758h.184V8.67h2.595V.667H8.378a1.45 1.45 0 0 0-1.406 1.049ZM21.324 4.234V8.67h2.597V6.073h2.79c1.212 0 2.24-.768 2.618-1.839h-8.005Z" fill="#319B42"/>
    <path d="M26.636.667h-5.777c.357 1.904 2.023 3.245 4.024 3.245h4.49c.032-.173.054-.368.054-.562 0-1.547-1.244-2.683-2.791-2.683Z" fill="url(#ema)"/>
    <defs>
        <linearGradient id="ema" x1="20.859" y1="2.29" x2="29.427" y2="2.29" gradientUnits="userSpaceOnUse">
            <stop stop-color="#00A3E1"/>
            <stop offset=".304" stop-color="#009ADD"/>
            <stop offset=".799" stop-color="#0082D4"/>
            <stop offset="1" stop-color="#0076CF"/>
        </linearGradient>
    </defs>
</svg><svg fill="none" viewBox="0 0 9 8" id="svgicons--7_2284" xmlns="http://www.w3.org/2000/svg">
    <path d="M4.596.843 2.78 4.758h-.184V0H0v8.002h2.152c.584 0 1.103-.335 1.352-.854L5.33 3.244h.184v4.758h2.596V0H5.926c-.562 0-1.092.335-1.33.843Z" fill="#319B42"/>
</svg><svg fill="none" viewBox="0 0 11 8" id="svgicons--7_2285" xmlns="http://www.w3.org/2000/svg">
    <path d="m6.305 1.049-1.07 3.709H5.05L3.97 1.048A1.46 1.46 0 0 0 2.563 0H0v8.002h2.595V3.244h.184l1.493 4.758h1.73l1.492-4.758h.184v4.758h2.596V0H7.71a1.45 1.45 0 0 0-1.406 1.049Z" fill="#319B42"/>
</svg><svg fill="none" viewBox="0 0 9 8" id="svgicons--7_2286" xmlns="http://www.w3.org/2000/svg">
    <path d="M.465 3.567v4.435h2.597V5.406h2.79c1.212 0 2.24-.768 2.618-1.839H.465Z" fill="#319B42"/>
    <path d="M5.777 0H0c.357 1.904 2.023 3.245 4.024 3.245h4.49c.032-.173.054-.368.054-.562C8.568 1.136 7.324 0 5.777 0Z" fill="url(#epa)"/>
    <defs>
        <linearGradient id="epa" x1="0" y1="1.623" x2="8.568" y2="1.623" gradientUnits="userSpaceOnUse">
            <stop stop-color="#00A3E1"/>
            <stop offset=".304" stop-color="#009ADD"/>
            <stop offset=".799" stop-color="#0082D4"/>
            <stop offset="1" stop-color="#0076CF"/>
        </linearGradient>
    </defs>
</svg><svg fill="none" viewBox="0 0 338 1" id="svgicons--7_2311" xmlns="http://www.w3.org/2000/svg">
    <path d="M0 .5h338" stroke="#000" stroke-opacity=".2"/>
</svg><svg fill="none" viewBox="0 0 338 1" id="svgicons--7_2319" xmlns="http://www.w3.org/2000/svg">
    <path d="M0 .5h338" stroke="#000" stroke-opacity=".2"/>
</svg><svg fill="none" viewBox="0 0 218 1" id="svgicons--7_2328" xmlns="http://www.w3.org/2000/svg">
    <path d="M0 .5h217.333" stroke="#000" stroke-opacity=".2"/>
</svg><svg fill="none" viewBox="0 0 218 1" id="svgicons--7_2336" xmlns="http://www.w3.org/2000/svg">
    <path d="M0 .5h217.333" stroke="#000" stroke-opacity=".2"/>
</svg><svg fill="none" viewBox="0 0 218 1" id="svgicons--7_2344" xmlns="http://www.w3.org/2000/svg">
    <path d="M0 .5h217.333" stroke="#000" stroke-opacity=".2"/>
</svg><svg fill="none" viewBox="0 0 20 20" id="svgicons--7_2373" xmlns="http://www.w3.org/2000/svg">
    <path fill-rule="evenodd" clip-rule="evenodd" d="m13.159 3.06 3.781 3.782L6.727 17.055l-3.992.798a.5.5 0 0 1-.588-.588l.798-3.992L13.16 3.06ZM4.177 13.932l8.982-8.981 1.89 1.89-8.981 8.982-2.364.473.473-2.364Z" fill="#CB11AB"/>
    <path fill-rule="evenodd" clip-rule="evenodd" d="m15.995 7.787-3.782-3.781 1.418-1.419a2.005 2.005 0 0 1 2.837 0l.945.946a2.006 2.006 0 0 1 0 2.836l-1.418 1.418Zm.473-2.363a.668.668 0 0 0 0-.946l-.946-.945a.668.668 0 0 0-.945 0l-.473.473 1.89 1.89.474-.472Z" fill="#CB11AB"/>
</svg><svg fill="none" viewBox="0 0 16 16" id="svgicons--7_2375" xmlns="http://www.w3.org/2000/svg">
    <path fill-rule="evenodd" clip-rule="evenodd" d="m11.021 1.06 3.782 3.782L4.59 15.055l-3.992.798a.5.5 0 0 1-.588-.588l.798-3.992L11.021 1.06ZM2.04 11.932l8.981-8.981 1.891 1.89-8.981 8.982-2.364.473.473-2.364Z" fill="#CB11AB"/>
    <path fill-rule="evenodd" clip-rule="evenodd" d="m13.858 5.787-3.782-3.781L11.494.587a2.005 2.005 0 0 1 2.836 0l.946.946a2.006 2.006 0 0 1 0 2.836l-1.418 1.418Zm.472-2.363a.668.668 0 0 0 0-.946l-.945-.945a.668.668 0 0 0-.945 0l-.473.473 1.89 1.89.473-.472Z" fill="#CB11AB"/>
</svg><svg fill="none" viewBox="0 0 48 1" id="svgicons--7_2380" xmlns="http://www.w3.org/2000/svg">
    <path d="M.5.5h47" stroke="#CB11AB" stroke-opacity=".2" stroke-linecap="square" stroke-dasharray="4 2"/>
</svg><svg fill="none" viewBox="0 0 10 8" id="svgicons--7_2387" xmlns="http://www.w3.org/2000/svg">
    <path fill-rule="evenodd" clip-rule="evenodd" d="M.35 2.428a1 1 0 0 1 1.41.109l2.235 2.608L8.05.355a1 1 0 1 1 1.527 1.291l-4.433 5.24a1.5 1.5 0 0 1-2.284.007L.24 3.838a1 1 0 0 1 .108-1.41Z" fill="url(#eya)"/>
    <defs>
        <linearGradient id="eya" x1="2.366" y1=".273" x2="3.875" y2="8.633" gradientUnits="userSpaceOnUse">
            <stop stop-color="#0CD38B"/>
            <stop offset="1" stop-color="#0CB477"/>
        </linearGradient>
    </defs>
</svg><svg fill="none" viewBox="0 0 63 1" id="svgicons--7_2391" xmlns="http://www.w3.org/2000/svg">
    <path d="M.5.5h62" stroke="#0CB477" stroke-opacity=".2" stroke-linecap="square" stroke-dasharray="4 2"/>
</svg><svg fill="none" viewBox="0 0 20 20" id="svgicons--7_2396" xmlns="http://www.w3.org/2000/svg">
    <path fill-rule="evenodd" clip-rule="evenodd" d="m13.159 3.06 3.781 3.782L6.727 17.055l-3.992.798a.5.5 0 0 1-.588-.588l.798-3.992L13.16 3.06ZM4.177 13.932l8.982-8.981 1.89 1.89-8.981 8.982-2.364.473.473-2.364Z" fill="#CB11AB"/>
    <path fill-rule="evenodd" clip-rule="evenodd" d="m15.995 7.787-3.782-3.781 1.418-1.419a2.005 2.005 0 0 1 2.837 0l.945.946a2.006 2.006 0 0 1 0 2.836l-1.418 1.418Zm.473-2.363a.668.668 0 0 0 0-.946l-.946-.945a.668.668 0 0 0-.945 0l-.473.473 1.89 1.89.474-.472Z" fill="#CB11AB"/>
</svg><svg fill="none" viewBox="0 0 16 16" id="svgicons--7_2397" xmlns="http://www.w3.org/2000/svg">
    <path fill-rule="evenodd" clip-rule="evenodd" d="m11.021 1.06 3.782 3.782L4.59 15.055l-3.992.798a.5.5 0 0 1-.588-.588l.798-3.992L11.021 1.06ZM2.04 11.932l8.981-8.981 1.891 1.89-8.981 8.982-2.364.473.473-2.364Z" fill="#CB11AB"/>
    <path fill-rule="evenodd" clip-rule="evenodd" d="m13.858 5.787-3.782-3.781L11.494.587a2.005 2.005 0 0 1 2.836 0l.946.946a2.006 2.006 0 0 1 0 2.836l-1.418 1.418Zm.472-2.363a.668.668 0 0 0 0-.946l-.945-.945a.668.668 0 0 0-.945 0l-.473.473 1.89 1.89.473-.472Z" fill="#CB11AB"/>
</svg><svg fill="none" viewBox="0 0 30 10" id="svgicons--7_2400" xmlns="http://www.w3.org/2000/svg">
    <path d="m16.681 1.51-1.817 3.915h-.183V.667h-2.596v8.002h2.152c.584 0 1.103-.335 1.352-.854l1.828-3.904h.183V8.67h2.596V.667H18.01c-.562 0-1.092.335-1.33.843ZM6.972 1.716l-1.07 3.709h-.184l-1.081-3.71A1.46 1.46 0 0 0 3.23.668H.668v8.002h2.595V3.911h.184l1.492 4.758h1.73l1.493-4.758h.184v4.758h2.595V.667H8.378a1.45 1.45 0 0 0-1.406 1.049ZM21.324 4.234v4.435h2.597V6.073h2.79c1.212 0 2.24-.768 2.619-1.839h-8.006Z" fill="#319B42"/>
    <path d="M26.636.667h-5.777c.357 1.904 2.023 3.245 4.024 3.245h4.49c.032-.173.054-.368.054-.562 0-1.547-1.244-2.683-2.791-2.683Z" fill="url(#fca)"/>
    <defs>
        <linearGradient id="fca" x1="20.859" y1="2.29" x2="29.427" y2="2.29" gradientUnits="userSpaceOnUse">
            <stop stop-color="#00A3E1"/>
            <stop offset=".304" stop-color="#009ADD"/>
            <stop offset=".799" stop-color="#0082D4"/>
            <stop offset="1" stop-color="#0076CF"/>
        </linearGradient>
    </defs>
</svg><svg fill="none" viewBox="0 0 9 8" id="svgicons--7_2401" xmlns="http://www.w3.org/2000/svg">
    <path d="M4.596.843 2.78 4.758h-.184V0H0v8.002h2.152c.584 0 1.103-.335 1.352-.854L5.33 3.244h.184v4.758h2.596V0H5.926c-.562 0-1.092.335-1.33.843Z" fill="#319B42"/>
</svg><svg fill="none" viewBox="0 0 11 8" id="svgicons--7_2402" xmlns="http://www.w3.org/2000/svg">
    <path d="m6.305 1.049-1.07 3.709H5.05L3.97 1.048A1.46 1.46 0 0 0 2.563 0H0v8.002h2.595V3.244h.184l1.493 4.758h1.73l1.492-4.758h.184v4.758h2.596V0H7.71a1.45 1.45 0 0 0-1.406 1.049Z" fill="#319B42"/>
</svg><svg fill="none" viewBox="0 0 9 8" id="svgicons--7_2403" xmlns="http://www.w3.org/2000/svg">
    <path d="M.465 3.567v4.435h2.597V5.406h2.79c1.212 0 2.24-.768 2.618-1.839H.465Z" fill="#319B42"/>
    <path d="M5.777 0H0c.357 1.904 2.023 3.245 4.024 3.245h4.49c.032-.173.054-.368.054-.562C8.568 1.136 7.324 0 5.777 0Z" fill="url(#ffa)"/>
    <defs>
        <linearGradient id="ffa" x1="0" y1="1.623" x2="8.568" y2="1.623" gradientUnits="userSpaceOnUse">
            <stop stop-color="#00A3E1"/>
            <stop offset=".304" stop-color="#009ADD"/>
            <stop offset=".799" stop-color="#0082D4"/>
            <stop offset="1" stop-color="#0076CF"/>
        </linearGradient>
    </defs>
</svg><svg fill="none" viewBox="0 0 22 22" id="svgicons--7_2407" xmlns="http://www.w3.org/2000/svg">
    <g clip-path="url(#fga)">
        <path fill-rule="evenodd" clip-rule="evenodd" d="M12.4 1H9.6c-1.697 0-2.909 0-3.86.078-.938.077-1.533.224-2.01.467A5 5 0 0 0 1.545 3.73c-.243.477-.39 1.072-.467 2.01C1.001 6.692 1 7.904 1 9.6v2.8c0 1.697 0 2.909.078 3.86.077.938.224 1.533.467 2.01a5 5 0 0 0 2.185 2.185c.477.243 1.072.39 2.01.467.951.077 2.163.078 3.86.078h2.8c1.697 0 2.909 0 3.86-.078.938-.077 1.533-.224 2.01-.467a5 5 0 0 0 2.185-2.185c.243-.477.39-1.072.467-2.01.077-.951.078-2.163.078-3.86V9.6c0-1.697 0-2.909-.078-3.86-.077-.938-.224-1.533-.467-2.01a5 5 0 0 0-2.185-2.185c-.477-.243-1.072-.39-2.01-.467C15.308 1.001 14.096 1 12.4 1ZM.654 3.276C0 4.56 0 6.24 0 9.6v2.8c0 3.36 0 5.04.654 6.324a6 6 0 0 0 2.622 2.622C4.56 22 6.24 22 9.6 22h2.8c3.36 0 5.04 0 6.324-.654a6 6 0 0 0 2.622-2.622C22 17.44 22 15.76 22 12.4V9.6c0-3.36 0-5.04-.654-6.324A6 6 0 0 0 18.724.654C17.44 0 15.76 0 12.4 0H9.6C6.24 0 4.56 0 3.276.654A6 6 0 0 0 .654 3.276Z" fill="#000" fill-opacity=".2"/>
    </g>
    <defs>
        <clipPath id="fga">
            <path fill="#fff" d="M0 0h22v22H0z"/>
        </clipPath>
    </defs>
</svg><svg fill="none" viewBox="0 0 22 22" id="svgicons--7_2409" xmlns="http://www.w3.org/2000/svg">
    <path fill-rule="evenodd" clip-rule="evenodd" d="M12.4 1H9.6c-1.697 0-2.909 0-3.86.078-.938.077-1.533.224-2.01.467A5 5 0 0 0 1.545 3.73c-.243.477-.39 1.072-.467 2.01C1.001 6.692 1 7.904 1 9.6v2.8c0 1.697 0 2.909.078 3.86.077.938.224 1.533.467 2.01a5 5 0 0 0 2.185 2.185c.477.243 1.072.39 2.01.467.951.077 2.163.078 3.86.078h2.8c1.697 0 2.909 0 3.86-.078.938-.077 1.533-.224 2.01-.467a5 5 0 0 0 2.185-2.185c.243-.477.39-1.072.467-2.01.077-.951.078-2.163.078-3.86V9.6c0-1.697 0-2.909-.078-3.86-.077-.938-.224-1.533-.467-2.01a5 5 0 0 0-2.185-2.185c-.477-.243-1.072-.39-2.01-.467C15.308 1.001 14.096 1 12.4 1ZM.654 3.276C0 4.56 0 6.24 0 9.6v2.8c0 3.36 0 5.04.654 6.324a6 6 0 0 0 2.622 2.622C4.56 22 6.24 22 9.6 22h2.8c3.36 0 5.04 0 6.324-.654a6 6 0 0 0 2.622-2.622C22 17.44 22 15.76 22 12.4V9.6c0-3.36 0-5.04-.654-6.324A6 6 0 0 0 18.724.654C17.44 0 15.76 0 12.4 0H9.6C6.24 0 4.56 0 3.276.654A6 6 0 0 0 .654 3.276Z" fill="#000" fill-opacity=".2"/>
</svg><svg fill="none" viewBox="0 0 13 24" id="svgicons--7_2416" xmlns="http://www.w3.org/2000/svg">
    <path fill-rule="evenodd" clip-rule="evenodd" d="m12.766 4.68-8.17 8.801L.257 8.67 1.743 7.33l2.874 3.188L11.3 3.32l1.466 1.36Z" fill="#000"/>
</svg><svg fill="none" viewBox="0 0 13 11" id="svgicons--7_2417" xmlns="http://www.w3.org/2000/svg">
    <path fill-rule="evenodd" clip-rule="evenodd" d="m12.508 1.36-8.17 8.802L0 5.35l1.485-1.34L4.36 7.2 11.043 0l1.465 1.36Z" fill="#000"/>
</svg><svg fill="none" viewBox="0 0 66 1" id="svgicons--7_2419" xmlns="http://www.w3.org/2000/svg">
    <path d="M0 .5h66" stroke="#000" stroke-opacity=".1"/>
</svg><svg fill="none" viewBox="0 0 52 1" id="svgicons--7_2420" xmlns="http://www.w3.org/2000/svg">
    <path d="M0 .5h52" stroke="#000" stroke-opacity=".1"/>
</svg><svg fill="none" viewBox="0 0 215 1" id="svgicons--7_2421" xmlns="http://www.w3.org/2000/svg">
    <path d="M0 .5h215" stroke="#000" stroke-opacity=".1"/>
</svg></svg>