<svg width="28" height="28" fill="none" xmlns="http://www.w3.org/2000/svg"><path fill-rule="evenodd" clip-rule="evenodd" d="M11.221 16.966a1 1 0 001.1.653l12.766-2.036a1 1 0 00.824-.792l1.354-6.792a1 1 0 00-.964-1.196l-17.36-.28a1 1 0 00-.958 1.335l3.238 9.109zm.605 7.894a2.326 2.326 0 100-4.653 2.326 2.326 0 000 4.652zm11.631 0a2.326 2.326 0 100-4.653 2.326 2.326 0 000 4.652zM5 3.5c1.933 0 3.5-.224 3.5-.5S6.933 2.5 5 2.5s-3.5.224-3.5.5 1.567.5 3.5.5z" fill="#fff"/><path fill-rule="evenodd" clip-rule="evenodd" d="M2.454 2.151C3.118 2.057 4.017 2 5 2c.983 0 1.882.057 2.546.151.327.047.619.106.839.18.107.037.227.086.33.158C8.8 2.55 9 2.713 9 3c0 .287-.2.451-.285.51a1.317 1.317 0 01-.33.158c-.22.075-.512.134-.84.18C6.883 3.944 5.984 4 5 4c-.983 0-1.882-.057-2.546-.151a4.934 4.934 0 01-.839-.18 1.317 1.317 0 01-.33-.158C1.2 3.45 1 3.287 1 3c0-.287.2-.451.285-.51.103-.073.223-.122.33-.158.22-.075.512-.134.84-.18z" fill="#fff"/></svg>