<svg width="27" height="23" fill="none" xmlns="http://www.w3.org/2000/svg"><path fill-rule="evenodd" clip-rule="evenodd" d="M10.221 14.966a1 1 0 001.1.653l12.766-2.036a1 1 0 00.824-.792l1.354-6.792a1 1 0 00-.964-1.196l-17.36-.28a1 1 0 00-.958 1.335l3.238 9.109zm.605 7.894a2.326 2.326 0 100-4.653 2.326 2.326 0 000 4.652zm11.631 0a2.326 2.326 0 100-4.653 2.326 2.326 0 000 4.652zM4 1.5c1.933 0 3.5-.224 3.5-.5S5.933.5 4 .5.5.724.5 1s1.567.5 3.5.5z" fill="#fff"/><path fill-rule="evenodd" clip-rule="evenodd" d="M1.454.151C2.118.057 3.017 0 4 0c.983 0 1.882.057 2.546.151.327.047.619.106.839.18.107.037.227.086.33.158C7.8.55 8 .713 8 1c0 .287-.2.451-.285.51a1.317 1.317 0 01-.33.158c-.22.075-.512.134-.84.18C5.883 1.944 4.984 2 4 2c-.983 0-1.882-.057-2.546-.151a4.934 4.934 0 01-.839-.18 1.317 1.317 0 01-.33-.158C.2 1.45 0 1.287 0 1 0 .713.2.549.285.49a1.25 1.25 0 01.33-.159c.22-.075.512-.134.84-.18z" fill="#fff"/></svg>