<svg width="32" height="11" fill="none" xmlns="http://www.w3.org/2000/svg"><path fill-rule="evenodd" clip-rule="evenodd" d="M16.184 3.23c-.018 1.408 1.254 2.194 2.213 2.66.985.48 1.315.787 1.312 1.216-.008.656-.786.945-1.514.956-1.27.02-2.01-.343-2.597-.617l-.457 2.142c.589.271 1.68.508 2.811.518 2.656 0 4.393-1.31 4.403-3.343.01-2.58-3.568-2.722-3.544-3.875.009-.35.342-.723 1.073-.818.362-.048 1.36-.084 2.493.437l.445-2.072A6.776 6.776 0 0020.456 0c-2.5 0-4.258 1.329-4.272 3.23zM27.093.18a1.15 1.15 0 00-1.076.717l-3.794 9.057h2.654l.528-1.46h3.243l.306 1.46h2.339L29.252.179h-2.16zm.37 2.64l.766 3.67h-2.097l1.332-3.67zM12.967.179l-2.091 9.774h2.528l2.09-9.774h-2.528zm-3.74 0L6.593 6.83 5.53 1.175C5.404.543 4.91.179 4.363.179H.06L0 .462c.883.192 1.887.501 2.495.832.372.202.478.379.6.859l2.017 7.8h2.672L11.881.179H9.226z" fill="#1434CB"/></svg>