<svg width="32" height="12" fill="none" xmlns="http://www.w3.org/2000/svg"><path fill-rule="evenodd" clip-rule="evenodd" d="M16.47 4.073c-.017 1.408 1.255 2.193 2.214 2.66.985.48 1.315.787 1.312 1.215-.008.656-.786.945-1.514.957-1.27.02-2.01-.343-2.596-.618l-.458 2.142c.589.271 1.68.508 2.811.518 2.656 0 4.393-1.31 4.403-3.343.01-2.58-3.568-2.722-3.544-3.875.009-.35.342-.723 1.073-.818.362-.047 1.361-.084 2.493.437l.445-2.072a6.776 6.776 0 00-2.366-.434c-2.5 0-4.258 1.329-4.272 3.23zM27.38 1.02c-.485 0-.894.283-1.076.717l-3.794 9.057h2.654l.528-1.459h3.243l.306 1.46h2.339L29.539 1.02h-2.16zm.37 2.64l.767 3.67h-2.098l1.332-3.67zM13.254 1.02l-2.092 9.774h2.528l2.091-9.774h-2.527zm-3.741 0L6.88 7.674 5.816 2.017c-.125-.632-.618-.996-1.166-.996H.347l-.06.284c.883.191 1.887.5 2.495.831.372.202.478.379.6.86l2.017 7.8H8.07l4.097-9.775H9.513z" fill="#1434CB"/></svg>