<svg width="15" height="16" fill="none" xmlns="http://www.w3.org/2000/svg"><path fill-rule="evenodd" clip-rule="evenodd" d="M0 3a.5.5 0 01.5-.5h14a.5.5 0 010 1H.5A.5.5 0 010 3z" fill="#9797AF"/><path fill-rule="evenodd" clip-rule="evenodd" d="M.958 2.5h13.048l-.865 11.193A2.5 2.5 0 0110.65 16H4.346a2.5 2.5 0 01-2.492-2.3L.958 2.5zm1.084 1l.81 10.12A1.5 1.5 0 004.345 15h6.303a1.5 1.5 0 001.495-1.384L12.926 3.5H2.042z" fill="#9797AF"/><path fill-rule="evenodd" clip-rule="evenodd" d="M10.5 3.5h-6V1.469A1.47 1.47 0 015.969 0H9.03c.812 0 1.47.658 1.47 1.469V3.5zM5.969 1a.469.469 0 00-.469.469V2.5h4V1.469A.469.469 0 009.031 1H5.97z" fill="#9797AF"/></svg>