<svg width="24" height="14" fill="none" xmlns="http://www.w3.org/2000/svg"><path fill-rule="evenodd" clip-rule="evenodd" d="M22.934 11.337v-.272h-.071l-.082.187-.081-.187h-.071v.272h.05v-.205l.076.177h.053l.076-.177v.205h.05zm-.45 0v-.225h.091v-.046h-.231v.046h.09v.225h.05z" fill="#F79410"/><path fill-rule="evenodd" clip-rule="evenodd" d="M14.888 12.502H8.764V1.495h6.124v11.007z" fill="#FF5F00"/><path fill-rule="evenodd" clip-rule="evenodd" d="M9.151 7a6.989 6.989 0 012.674-5.503A7 7 0 00.5 7a7 7 0 0011.325 5.504A6.989 6.989 0 019.15 7" fill="#EB001B"/><path fill-rule="evenodd" clip-rule="evenodd" d="M23.15 7a7 7 0 01-11.326 5.504A6.987 6.987 0 0014.498 7a6.987 6.987 0 00-2.674-5.503A7 7 0 0123.15 7" fill="#F79410"/></svg>