<svg width="19" height="16" fill="none" xmlns="http://www.w3.org/2000/svg"><path fill-rule="evenodd" clip-rule="evenodd" d="M2.094 2.059c-.768.693-1.267 1.774-1.039 3.37.229 1.599 1.27 3.256 2.81 4.919 1.454 1.57 3.305 3.096 5.195 4.526 1.89-1.43 3.742-2.956 5.196-4.526 1.54-1.663 2.581-3.32 2.81-4.919.228-1.596-.272-2.677-1.04-3.37C15.237 1.346 14.116 1 13.06 1c-1.868 0-2.907 1.085-3.482 1.684-.06.063-.114.12-.164.17a.5.5 0 01-.707 0 7.28 7.28 0 01-.164-.17C7.968 2.084 6.928 1 5.06 1c-1.055 0-2.176.346-2.966 1.059zm-.67-.743C2.434.404 3.812 0 5.06 0c2.072 0 3.346 1.113 4 1.779.655-.666 1.93-1.779 4-1.779 1.248 0 2.627.404 3.637 1.316 1.03.932 1.63 2.351 1.358 4.255-.271 1.901-1.48 3.744-3.065 5.456-1.594 1.722-3.623 3.368-5.63 4.873a.5.5 0 01-.6 0c-2.006-1.505-4.035-3.152-5.629-4.873C1.545 9.315.337 7.472.065 5.571c-.272-1.904.328-3.323 1.36-4.255z" fill="#000"/></svg>