<svg width="22" height="22" fill="none" xmlns="http://www.w3.org/2000/svg"><g clip-path="url(#clip0_7_2104)" fill-rule="evenodd" clip-rule="evenodd"><path d="M.654 3.276C0 4.56 0 6.24 0 9.6v2.8c0 3.36 0 5.04.654 6.324a6 6 0 002.622 2.622C4.56 22 6.24 22 9.6 22h2.8c3.36 0 5.04 0 6.324-.654a6 6 0 002.622-2.622C22 17.44 22 15.76 22 12.4V9.6c0-3.36 0-5.04-.654-6.324A6 6 0 0018.724.654C17.44 0 15.76 0 12.4 0H9.6C6.24 0 4.56 0 3.276.654A6 6 0 00.654 3.276z" fill="#CB11AB"/><path d="M17.735 6.68l-8.148 8.804-4.33-4.816 1.488-1.337 2.863 3.185 6.66-7.195 1.467 1.358z" fill="#fff"/></g><defs><clipPath id="clip0_7_2104"><path fill="#fff" d="M0 0h22v22H0z"/></clipPath></defs></svg>