<svg width="16" height="16" fill="none" xmlns="http://www.w3.org/2000/svg"><path fill-rule="evenodd" clip-rule="evenodd" d="M11.021 1.06l3.782 3.782L4.59 15.055l-3.992.798a.5.5 0 01-.588-.588l.798-3.992L11.021 1.06zM2.04 11.932l8.981-8.981 1.891 1.89-8.981 8.982-2.364.473.473-2.364z" fill="#CB11AB"/><path fill-rule="evenodd" clip-rule="evenodd" d="M13.858 5.787l-3.782-3.781L11.494.587a2.005 2.005 0 012.836 0l.946.946a2.006 2.006 0 010 2.836l-1.418 1.418zm.472-2.363a.668.668 0 000-.946l-.945-.945a.668.668 0 00-.945 0l-.473.473 1.89 1.89.473-.472z" fill="#CB11AB"/></svg>