<svg width="22" height="22" fill="none" xmlns="http://www.w3.org/2000/svg"><path fill-rule="evenodd" clip-rule="evenodd" d="M12.4 1H9.6c-1.697 0-2.909 0-3.86.078-.938.077-1.533.224-2.01.467A5 5 0 001.545 3.73c-.243.477-.39 1.072-.467 2.01C1.001 6.692 1 7.904 1 9.6v2.8c0 1.697 0 2.909.078 3.86.077.938.224 1.533.467 2.01a5 5 0 002.185 2.185c.477.243 1.072.39 2.01.467.951.077 2.163.078 3.86.078h2.8c1.697 0 2.909 0 3.86-.078.938-.077 1.533-.224 2.01-.467a5 5 0 002.185-2.185c.243-.477.39-1.072.467-2.01.077-.951.078-2.163.078-3.86V9.6c0-1.697 0-2.909-.078-3.86-.077-.938-.224-1.533-.467-2.01a5 5 0 00-2.185-2.185c-.477-.243-1.072-.39-2.01-.467C15.308 1.001 14.096 1 12.4 1zM.654 3.276C0 4.56 0 6.24 0 9.6v2.8c0 3.36 0 5.04.654 6.324a6 6 0 002.622 2.622C4.56 22 6.24 22 9.6 22h2.8c3.36 0 5.04 0 6.324-.654a6 6 0 002.622-2.622C22 17.44 22 15.76 22 12.4V9.6c0-3.36 0-5.04-.654-6.324A6 6 0 0018.724.654C17.44 0 15.76 0 12.4 0H9.6C6.24 0 4.56 0 3.276.654A6 6 0 00.654 3.276z" fill="#000" fill-opacity=".2"/></svg>