<svg width="30" height="10" fill="none" xmlns="http://www.w3.org/2000/svg"><path d="M16.681 1.51l-1.817 3.915h-.183V.667h-2.596v8.002h2.152c.584 0 1.103-.335 1.352-.854l1.828-3.904h.183V8.67h2.596V.667H18.01c-.562 0-1.092.335-1.33.843zm-9.709.206l-1.07 3.709h-.184l-1.081-3.71A1.46 1.46 0 003.23.668H.668V8.67h2.595V3.911h.184l1.492 4.758h1.73l1.493-4.758h.184v4.758h2.595V.667H8.378a1.45 1.45 0 00-1.406 1.049zm14.352 2.518v4.435h2.597V6.073h2.79c1.212 0 2.24-.768 2.619-1.839h-8.006z" fill="#319B42"/><path d="M26.636.667h-5.777c.357 1.904 2.023 3.245 4.024 3.245h4.49c.032-.173.054-.368.054-.562 0-1.547-1.244-2.683-2.791-2.683z" fill="url(#paint0_linear_7_2400)"/><defs><linearGradient id="paint0_linear_7_2400" x1="20.859" y1="2.29" x2="29.427" y2="2.29" gradientUnits="userSpaceOnUse"><stop stop-color="#00A3E1"/><stop offset=".304" stop-color="#009ADD"/><stop offset=".799" stop-color="#0082D4"/><stop offset="1" stop-color="#0076CF"/></linearGradient></defs></svg>