<svg width="27" height="23" viewBox="0 0 27 23" fill="none" xmlns="http://www.w3.org/2000/svg">
<path fill-rule="evenodd" clip-rule="evenodd" d="M10.2214 14.9665C10.3829 15.4206 10.8452 15.6949 11.3212 15.619L24.0874 13.5828C24.5004 13.517 24.8288 13.201 24.9106 12.7909L26.2654 5.99865C26.3875 5.38644 25.925 4.81324 25.3008 4.80317L7.94122 4.52324C7.24354 4.51199 6.74913 5.20067 6.98289 5.85812L10.2214 14.9665Z" fill="white"/>
<path fill-rule="evenodd" clip-rule="evenodd" d="M10.8262 22.8593C12.1109 22.8593 13.1523 21.8178 13.1523 20.5331C13.1523 19.2484 12.1109 18.207 10.8262 18.207C9.54146 18.207 8.5 19.2484 8.5 20.5331C8.5 21.8178 9.54146 22.8593 10.8262 22.8593Z" fill="white"/>
<path fill-rule="evenodd" clip-rule="evenodd" d="M22.457 22.8593C23.7417 22.8593 24.7831 21.8178 24.7831 20.5331C24.7831 19.2484 23.7417 18.207 22.457 18.207C21.1723 18.207 20.1308 19.2484 20.1308 20.5331C20.1308 21.8178 21.1723 22.8593 22.457 22.8593Z" fill="white"/>
<path fill-rule="evenodd" clip-rule="evenodd" d="M4 1.5C5.933 1.5 7.5 1.27614 7.5 1C7.5 0.723858 5.933 0.5 4 0.5C2.067 0.5 0.5 0.723858 0.5 1C0.5 1.27614 2.067 1.5 4 1.5Z" fill="white"/>
<path fill-rule="evenodd" clip-rule="evenodd" d="M1.45442 0.151472C2.1177 0.0567167 3.01745 0 4 0C4.98255 0 5.8823 0.0567167 6.54558 0.151472C6.87345 0.19831 7.16489 0.257343 7.38495 0.331667C7.4917 0.367722 7.61185 0.417169 7.71511 0.489256C7.80017 0.548637 8 0.712748 8 1C8 1.28725 7.80017 1.45136 7.71511 1.51074C7.61185 1.58283 7.4917 1.63228 7.38495 1.66833C7.16489 1.74266 6.87345 1.80169 6.54558 1.84853C5.8823 1.94328 4.98255 2 4 2C3.01745 2 2.1177 1.94328 1.45442 1.84853C1.12655 1.80169 0.835108 1.74266 0.615051 1.66833C0.508302 1.63228 0.388151 1.58283 0.284892 1.51074C0.199835 1.45136 0 1.28725 0 1C0 0.712748 0.199835 0.548637 0.284892 0.489256C0.388151 0.417169 0.508302 0.367722 0.615051 0.331667C0.835108 0.257343 1.12655 0.19831 1.45442 0.151472Z" fill="white"/>
</svg>
