<svg width="15" height="16" viewBox="0 0 15 16" fill="none" xmlns="http://www.w3.org/2000/svg">
<path d="M2.86569 12.0041C2.56569 11.6041 2.26569 10.9041 1.66569 10.0041C1.36569 9.50405 0.465685 8.50405 0.165685 8.10405C-0.0343146 7.70405 -0.0343146 7.50405 0.0656854 7.10405C0.165685 6.50405 0.765685 6.00405 1.46569 6.00405C1.96569 6.00405 2.46569 6.40405 2.86569 6.70405C3.06569 6.90405 3.36569 7.30405 3.56569 7.50405C3.76569 7.70405 3.76569 7.80405 3.96569 8.00405C4.16569 8.30405 4.26569 8.50405 4.16569 8.10405C4.06569 7.60405 3.96569 6.80405 3.76569 6.00405C3.66569 5.40405 3.56569 5.30405 3.46569 4.90405C3.36569 4.40405 3.26569 4.10405 3.16569 3.60405C3.06569 3.30405 2.96569 2.50405 2.86569 2.10405C2.76569 1.60405 2.76569 0.704052 3.16569 0.304052C3.46569 0.0040518 4.06569 -0.0959482 4.46569 0.104052C4.96569 0.404052 5.26569 1.10405 5.36569 1.40405C5.56569 1.90405 5.76569 2.60405 5.86569 3.40405C6.06569 4.40405 6.36569 5.90405 6.36569 6.20405C6.36569 5.80405 6.26569 5.10405 6.36569 4.70405C6.46569 4.40405 6.66569 4.00405 7.06569 3.90405C7.36569 3.80405 7.66569 3.80405 7.96569 3.80405C8.26569 3.90405 8.56569 4.10405 8.76569 4.30405C9.16569 4.90405 9.16569 6.20405 9.16569 6.10405C9.26569 5.70405 9.26569 4.90405 9.46569 4.50405C9.56569 4.30405 9.96569 4.10405 10.1657 4.00405C10.4657 3.90405 10.8657 3.90405 11.1657 4.00405C11.3657 4.00405 11.7657 4.30405 11.8657 4.50405C12.0657 4.80405 12.1657 5.80405 12.2657 6.20405C12.2657 6.30405 12.3657 5.80405 12.5657 5.50405C12.9657 4.90405 14.3657 4.70405 14.4657 6.10405C14.4657 6.80405 14.4657 6.70405 14.4657 7.20405C14.4657 7.70405 14.4657 8.00405 14.4657 8.40405C14.4657 8.80405 14.3657 9.70405 14.2657 10.1041C14.1657 10.4041 13.8657 11.1041 13.5657 11.5041C13.5657 11.5041 12.4657 12.7041 12.3657 13.3041C12.2657 13.9041 12.2657 13.9041 12.2657 14.3041C12.2657 14.7041 12.3657 15.2041 12.3657 15.2041C12.3657 15.2041 11.5657 15.3041 11.1657 15.2041C10.7657 15.1041 10.2657 14.4041 10.1657 14.1041C9.96569 13.8041 9.66569 13.8041 9.46569 14.1041C9.26569 14.5041 8.76569 15.2041 8.36569 15.2041C7.66569 15.3041 6.26569 15.2041 5.26569 15.2041C5.26569 15.2041 5.46569 14.2041 5.06569 13.8041C4.76569 13.5041 4.26569 13.0041 3.96569 12.7041L2.86569 12.0041Z" fill="white"/>
</svg>
