<svg width="32" height="11" viewBox="0 0 32 11" fill="none" xmlns="http://www.w3.org/2000/svg">
<path fill-rule="evenodd" clip-rule="evenodd" d="M16.1838 3.2306C16.1659 4.63824 17.4383 5.42377 18.3967 5.89081C19.3815 6.37006 19.7123 6.67736 19.7085 7.10584C19.701 7.76174 18.9229 8.05112 18.1947 8.06238C16.9242 8.0821 16.1856 7.71941 15.5984 7.44505L15.1408 9.58651C15.7299 9.85813 16.8209 10.0949 17.9523 10.1053C20.6078 10.1053 22.3452 8.7944 22.3546 6.76193C22.365 4.18253 18.7867 4.03968 18.8111 2.88669C18.8196 2.53715 19.1531 2.16406 19.8842 2.06917C20.246 2.02129 21.2448 1.9846 22.3772 2.50609L22.8216 0.434189C22.2127 0.212401 21.4299 0 20.4556 0C17.956 0 16.1979 1.3287 16.1838 3.2306ZM27.0925 0.178527C26.6076 0.178527 26.1988 0.461414 26.0165 0.895525L22.2231 9.95302H24.8767L25.4048 8.49368H28.6476L28.9539 9.95302H31.2928L29.2518 0.178527H27.0925ZM27.4636 2.81902L28.2294 6.48937H26.1321L27.4636 2.81902ZM12.9664 0.178527L10.8747 9.95302H13.4033L15.4941 0.178527H12.9664ZM9.22555 0.178527L6.5935 6.8314L5.52884 1.17458C5.4039 0.543167 4.91057 0.178527 4.36271 0.178527H0.0600126L-0.000147769 0.462353C0.883173 0.654022 1.88674 0.963196 2.49468 1.29396C2.86675 1.49596 2.97299 1.67261 3.09511 2.1528L5.11163 9.95302H7.78412L11.8811 0.178527H9.22555Z" fill="#1434CB"/>
</svg>
