<svg width="30" height="10" viewBox="0 0 30 10" fill="none" xmlns="http://www.w3.org/2000/svg">
<path d="M16.682 1.51045L14.8652 5.42499H14.6814V0.666992H12.0859V8.66907H14.238C14.8219 8.66907 15.341 8.33385 15.5898 7.8148L17.4174 3.91108H17.6012V8.66907H20.1966V0.666992H18.0121C17.4498 0.666992 16.9199 1.00221 16.682 1.51045Z" fill="#319B42"/>
<path d="M6.97268 1.71591L5.90207 5.42499H5.71822L4.6368 1.71591C4.45296 1.08872 3.8798 0.666992 3.23095 0.666992H0.667969V8.66907H3.26339V3.91108H3.44723L4.9396 8.66907H6.66988L8.16225 3.91108H8.34609V8.66907H10.9415V0.666992H8.37853C7.72968 0.666992 7.14571 1.08872 6.97268 1.71591Z" fill="#319B42"/>
<path d="M21.3247 4.23408V8.66908H23.9209V6.07298H26.7119C27.9235 6.07298 28.9512 5.30497 29.3298 4.23408H21.3247Z" fill="#319B42"/>
<path d="M26.636 0.666992H20.8594C21.2164 2.5708 22.8823 3.91211 24.8836 3.91211H29.3729C29.4054 3.73904 29.427 3.54433 29.427 3.34963C29.427 1.80278 28.183 0.666992 26.636 0.666992Z" fill="url(#paint0_linear_34520_22)"/>
<defs>
<linearGradient id="paint0_linear_34520_22" x1="20.8594" y1="2.28955" x2="29.427" y2="2.28955" gradientUnits="userSpaceOnUse">
<stop stop-color="#00A3E1"/>
<stop offset="0.3042" stop-color="#009ADD"/>
<stop offset="0.7987" stop-color="#0082D4"/>
<stop offset="1" stop-color="#0076CF"/>
</linearGradient>
</defs>
</svg>
