<svg width="16" height="16" viewBox="0 0 16 16" fill="none" xmlns="http://www.w3.org/2000/svg">
<path d="M3.19967 12.3791C2.89967 11.9791 2.59967 11.2791 1.99967 10.3791C1.69967 9.87905 0.79967 8.87905 0.49967 8.47905C0.29967 8.07905 0.29967 7.87905 0.39967 7.47905C0.49967 6.87905 1.09967 6.37905 1.79967 6.37905C2.29967 6.37905 2.79967 6.77905 3.19967 7.07905C3.39967 7.27905 3.69967 7.67905 3.89967 7.87905C4.09967 8.07905 4.09967 8.17905 4.29967 8.37905C4.49967 8.67905 4.59967 8.87905 4.49967 8.47905C4.39967 7.97905 4.29967 7.17905 4.09967 6.37905C3.99967 5.77905 3.89967 5.67905 3.79967 5.27905C3.69967 4.77905 3.59967 4.47905 3.49967 3.97905C3.39967 3.67905 3.29967 2.87905 3.19967 2.47905C3.09967 1.97905 3.09967 1.07905 3.49967 0.679052C3.79967 0.379052 4.39967 0.279052 4.79967 0.479052C5.29967 0.779052 5.59967 1.47905 5.69967 1.77905C5.89967 2.27905 6.09967 2.97905 6.19967 3.77905C6.39967 4.77905 6.69967 6.27905 6.69967 6.57905C6.69967 6.17905 6.59967 5.47905 6.69967 5.07905C6.79967 4.77905 6.99967 4.37905 7.39967 4.27905C7.69967 4.17905 7.99967 4.17905 8.29967 4.17905C8.59967 4.27905 8.89967 4.47905 9.09967 4.67905C9.49967 5.27905 9.49967 6.57905 9.49967 6.47905C9.59967 6.07905 9.59967 5.27905 9.79967 4.87905C9.89967 4.67905 10.2997 4.47905 10.4997 4.37905C10.7997 4.27905 11.1997 4.27905 11.4997 4.37905C11.6997 4.37905 12.0997 4.67905 12.1997 4.87905C12.3997 5.17905 12.4997 6.17905 12.5997 6.57905C12.5997 6.67905 12.6997 6.17905 12.8997 5.87905C13.2997 5.27905 14.6997 5.07905 14.7997 6.47905C14.7997 7.17905 14.7997 7.07905 14.7997 7.57905C14.7997 8.07905 14.7997 8.37905 14.7997 8.77905C14.7997 9.17905 14.6997 10.0791 14.5997 10.4791C14.4997 10.7791 14.1997 11.4791 13.8997 11.8791C13.8997 11.8791 12.7997 13.0791 12.6997 13.6791C12.5997 14.2791 12.5997 14.2791 12.5997 14.6791C12.5997 15.0791 12.6997 15.5791 12.6997 15.5791C12.6997 15.5791 11.8997 15.6791 11.4997 15.5791C11.0997 15.4791 10.5997 14.7791 10.4997 14.4791C10.2997 14.1791 9.99967 14.1791 9.79967 14.4791C9.59967 14.8791 9.09967 15.5791 8.69967 15.5791C7.99967 15.6791 6.59967 15.5791 5.59967 15.5791C5.59967 15.5791 5.79967 14.5791 5.39967 14.1791C5.09967 13.8791 4.59967 13.3791 4.29967 13.0791L3.19967 12.3791Z" stroke="black" stroke-width="0.75" stroke-linecap="round" stroke-linejoin="round"/>
</svg>
