<svg width="15" height="15" viewBox="0 0 15 15" fill="none" xmlns="http://www.w3.org/2000/svg">
<path d="M13.0203 0.292893C13.4108 -0.0975671 14.0439 -0.09744 14.4344 0.292893C14.8249 0.683417 14.8249 1.31643 14.4344 1.70696L8.77815 7.36321L14.4354 13.0204C14.8259 13.411 14.8259 14.0449 14.4354 14.4355C14.0449 14.8257 13.4118 14.8256 13.0213 14.4355L7.36311 8.77727L1.70686 14.4345C1.31634 14.825 0.683322 14.825 0.292798 14.4345C-0.0975355 14.044 -0.0976629 13.4109 0.292798 13.0204L5.94905 7.36321L0.292798 1.70696C-0.0973961 1.31647 -0.0974668 0.68334 0.292798 0.292893C0.683322 -0.0976312 1.31731 -0.0976308 1.70784 0.292893L7.36409 5.94914L13.0203 0.292893Z" fill="#9797AF"/>
</svg>
