<svg width="16" height="16" viewBox="0 0 16 16" fill="none" xmlns="http://www.w3.org/2000/svg">
<g clip-path="url(#clip0_34521_136)">
<path d="M3.19967 12.4C2.89967 12 2.59967 11.3 1.99967 10.4C1.69967 9.90005 0.79967 8.90005 0.49967 8.50005C0.29967 8.10005 0.29967 7.90005 0.39967 7.50005C0.49967 6.90005 1.09967 6.40005 1.79967 6.40005C2.29967 6.40005 2.79967 6.80005 3.19967 7.10005C3.39967 7.30005 3.69967 7.70005 3.89967 7.90005C4.09967 8.10005 4.09967 8.20005 4.29967 8.40005C4.49967 8.70005 4.59967 8.90005 4.49967 8.50005C4.39967 8.00005 4.29967 7.20005 4.09967 6.40005C3.99967 5.80005 3.89967 5.70005 3.79967 5.30005C3.69967 4.80005 3.59967 4.50005 3.49967 4.00005C3.39967 3.70005 3.29967 2.90005 3.19967 2.50005C3.09967 2.00005 3.09967 1.10005 3.49967 0.700048C3.79967 0.400048 4.39967 0.300048 4.79967 0.500048C5.29967 0.800048 5.59967 1.50005 5.69967 1.80005C5.89967 2.30005 6.09967 3.00005 6.19967 3.80005C6.39967 4.80005 6.69967 6.30005 6.69967 6.60005C6.69967 6.20005 6.59967 5.50005 6.69967 5.10005C6.79967 4.80005 6.99967 4.40005 7.39967 4.30005C7.69967 4.20005 7.99967 4.20005 8.29967 4.20005C8.59967 4.30005 8.89967 4.50005 9.09967 4.70005C9.49967 5.30005 9.49967 6.60005 9.49967 6.50005C9.59967 6.10005 9.59967 5.30005 9.79967 4.90005C9.89967 4.70005 10.2997 4.50005 10.4997 4.40005C10.7997 4.30005 11.1997 4.30005 11.4997 4.40005C11.6997 4.40005 12.0997 4.70005 12.1997 4.90005C12.3997 5.20005 12.4997 6.20005 12.5997 6.60005C12.5997 6.70005 12.6997 6.20005 12.8997 5.90005C13.2997 5.30005 14.6997 5.10005 14.7997 6.50005C14.7997 7.20005 14.7997 7.10005 14.7997 7.60005C14.7997 8.10005 14.7997 8.40005 14.7997 8.80005C14.7997 9.20005 14.6997 10.1 14.5997 10.5C14.4997 10.8 14.1997 11.5 13.8997 11.9C13.8997 11.9 12.7997 13.1 12.6997 13.7C12.5997 14.3 12.5997 14.3 12.5997 14.7C12.5997 15.1 12.6997 15.6 12.6997 15.6C12.6997 15.6 11.8997 15.7 11.4997 15.6C11.0997 15.5 10.5997 14.8 10.4997 14.5C10.2997 14.2 9.99967 14.2 9.79967 14.5C9.59967 14.9 9.09967 15.6 8.69967 15.6C7.99967 15.7 6.59967 15.6 5.59967 15.6C5.59967 15.6 5.79967 14.6 5.39967 14.2C5.09967 13.9 4.59967 13.4 4.29967 13.1L3.19967 12.4Z" fill="white"/>
<path d="M3.19967 12.4C2.89967 12 2.59967 11.3 1.99967 10.4C1.69967 9.90005 0.79967 8.90005 0.49967 8.50005C0.29967 8.10005 0.29967 7.90005 0.39967 7.50005C0.49967 6.90005 1.09967 6.40005 1.79967 6.40005C2.29967 6.40005 2.79967 6.80005 3.19967 7.10005C3.39967 7.30005 3.69967 7.70005 3.89967 7.90005C4.09967 8.10005 4.09967 8.20005 4.29967 8.40005C4.49967 8.70005 4.59967 8.90005 4.49967 8.50005C4.39967 8.00005 4.29967 7.20005 4.09967 6.40005C3.99967 5.80005 3.89967 5.70005 3.79967 5.30005C3.69967 4.80005 3.59967 4.50005 3.49967 4.00005C3.39967 3.70005 3.29967 2.90005 3.19967 2.50005C3.09967 2.00005 3.09967 1.10005 3.49967 0.700048C3.79967 0.400048 4.39967 0.300048 4.79967 0.500048C5.29967 0.800048 5.59967 1.50005 5.69967 1.80005C5.89967 2.30005 6.09967 3.00005 6.19967 3.80005C6.39967 4.80005 6.69967 6.30005 6.69967 6.60005C6.69967 6.20005 6.59967 5.50005 6.69967 5.10005C6.79967 4.80005 6.99967 4.40005 7.39967 4.30005C7.69967 4.20005 7.99967 4.20005 8.29967 4.20005C8.59967 4.30005 8.89967 4.50005 9.09967 4.70005C9.49967 5.30005 9.49967 6.60005 9.49967 6.50005C9.59967 6.10005 9.59967 5.30005 9.79967 4.90005C9.89967 4.70005 10.2997 4.50005 10.4997 4.40005C10.7997 4.30005 11.1997 4.30005 11.4997 4.40005C11.6997 4.40005 12.0997 4.70005 12.1997 4.90005C12.3997 5.20005 12.4997 6.20005 12.5997 6.60005C12.5997 6.70005 12.6997 6.20005 12.8997 5.90005C13.2997 5.30005 14.6997 5.10005 14.7997 6.50005C14.7997 7.20005 14.7997 7.10005 14.7997 7.60005C14.7997 8.10005 14.7997 8.40005 14.7997 8.80005C14.7997 9.20005 14.6997 10.1 14.5997 10.5C14.4997 10.8 14.1997 11.5 13.8997 11.9C13.8997 11.9 12.7997 13.1 12.6997 13.7C12.5997 14.3 12.5997 14.3 12.5997 14.7C12.5997 15.1 12.6997 15.6 12.6997 15.6C12.6997 15.6 11.8997 15.7 11.4997 15.6C11.0997 15.5 10.5997 14.8 10.4997 14.5C10.2997 14.2 9.99967 14.2 9.79967 14.5C9.59967 14.9 9.09967 15.6 8.69967 15.6C7.99967 15.7 6.59967 15.6 5.59967 15.6C5.59967 15.6 5.79967 14.6 5.39967 14.2C5.09967 13.9 4.59967 13.4 4.29967 13.1L3.19967 12.4Z" stroke="black" stroke-width="0.75" stroke-linecap="round" stroke-linejoin="round"/>
<path d="M11.5 12.7V9.30005" stroke="black" stroke-width="0.75" stroke-linecap="round"/>
<path d="M9.50039 12.7L9.40039 9.30005" stroke="black" stroke-width="0.75" stroke-linecap="round"/>
<path d="M7.5 9.30005V12.7" stroke="black" stroke-width="0.75" stroke-linecap="round"/>
</g>
<defs>
<clipPath id="clip0_34521_136">
<rect width="15.2" height="16" fill="white"/>
</clipPath>
</defs>
</svg>
