<svg width="32" height="12" viewBox="0 0 32 12" fill="none" xmlns="http://www.w3.org/2000/svg">
<path fill-rule="evenodd" clip-rule="evenodd" d="M16.4709 4.07289C16.453 5.48052 17.7254 6.26605 18.6838 6.7331C19.6686 7.21235 19.9994 7.51964 19.9956 7.94812C19.9881 8.60402 19.21 8.8934 18.4818 8.90467C17.2113 8.92438 16.4727 8.5617 15.8855 8.28734L15.4279 10.4288C16.017 10.7004 17.108 10.9372 18.2394 10.9475C20.8949 10.9475 22.6323 9.63669 22.6418 7.60421C22.6521 5.02482 19.0738 4.88196 19.0982 3.72898C19.1067 3.37944 19.4403 3.00635 20.1713 2.91145C20.5331 2.86357 21.532 2.82688 22.6643 3.34838L23.1087 1.27647C22.4998 1.05469 21.7171 0.842285 20.7427 0.842285C18.2431 0.842285 16.485 2.17098 16.4709 4.07289ZM27.3796 1.02081C26.8947 1.02081 26.4859 1.3037 26.3037 1.73781L22.5102 10.7953H25.1638L25.6919 9.33596H28.9347L29.241 10.7953H31.5799L29.5389 1.02081H27.3796ZM27.7507 3.66131L28.5165 7.33165H26.4192L27.7507 3.66131ZM13.2535 1.02081L11.1618 10.7953H13.6904L15.7812 1.02081H13.2535ZM9.51266 1.02081L6.88061 7.67368L5.81595 2.01687C5.69101 1.38545 5.19768 1.02081 4.64982 1.02081H0.347122L0.286962 1.30464C1.17028 1.49631 2.17385 1.80548 2.78179 2.13625C3.15386 2.33824 3.2601 2.51489 3.38222 2.99508L5.39874 10.7953H8.07123L12.1682 1.02081H9.51266Z" fill="#1434CB"/>
</svg>
