<svg width="30" height="10" viewBox="0 0 30 10" fill="none" xmlns="http://www.w3.org/2000/svg">
<path d="M16.6811 1.51045L14.8643 5.42499H14.6805V0.666992H12.0851V8.66908H14.2371C14.8211 8.66908 15.3402 8.33385 15.5889 7.8148L17.4165 3.91108H17.6004V8.66908H20.1958V0.666992H18.0113C17.449 0.666992 16.9191 1.00221 16.6811 1.51045Z" fill="#319B42"/>
<path d="M6.97243 1.71591L5.90182 5.42499H5.71798L4.63656 1.71591C4.45271 1.08872 3.87956 0.666992 3.2307 0.666992H0.667725V8.66908H3.26315V3.91108H3.44699L4.93935 8.66908H6.66963L8.162 3.91108H8.34584V8.66908H10.9413V0.666992H8.37829C7.72943 0.666992 7.14546 1.08872 6.97243 1.71591Z" fill="#319B42"/>
<path d="M21.3243 4.23408V8.66908H23.9206V6.07298H26.7115C27.9231 6.07298 28.9508 5.30497 29.3294 4.23408H21.3243Z" fill="#319B42"/>
<path d="M26.6357 0.666992H20.859C21.216 2.5708 22.8819 3.91211 24.8832 3.91211H29.3725C29.405 3.73904 29.4266 3.54433 29.4266 3.34963C29.4266 1.80278 28.1826 0.666992 26.6357 0.666992Z" fill="url(#paint0_linear_7_2283)"/>
<defs>
<linearGradient id="paint0_linear_7_2283" x1="20.859" y1="2.28955" x2="29.4266" y2="2.28955" gradientUnits="userSpaceOnUse">
<stop stop-color="#00A3E1"/>
<stop offset="0.3042" stop-color="#009ADD"/>
<stop offset="0.7987" stop-color="#0082D4"/>
<stop offset="1" stop-color="#0076CF"/>
</linearGradient>
</defs>
</svg>
