<svg width="16" height="16" viewBox="0 0 16 16" fill="none" xmlns="http://www.w3.org/2000/svg">
<path fill-rule="evenodd" clip-rule="evenodd" d="M11.0212 1.05991L14.8029 4.84154L4.58984 15.0546L0.598228 15.8529C0.248368 15.9229 -0.0600921 15.6144 0.00988001 15.2646L0.808203 11.273L11.0212 1.05991ZM2.03986 11.9321L11.0212 2.95072L12.9121 4.84154L3.93068 13.8229L1.56715 14.2956L2.03986 11.9321Z" fill="#CB11AB"/>
<path fill-rule="evenodd" clip-rule="evenodd" d="M13.8576 5.78715L10.076 2.00552L11.4941 0.587402C12.2773 -0.195801 13.5471 -0.195801 14.3303 0.587402L15.2757 1.53281C16.0589 2.31601 16.0589 3.58584 15.2757 4.36904L13.8576 5.78715ZM14.3303 3.42363C14.5914 3.16256 14.5914 2.73929 14.3303 2.47822L13.3849 1.53281C13.1238 1.27174 12.7006 1.27174 12.4395 1.53281L11.9668 2.00552L13.8576 3.89634L14.3303 3.42363Z" fill="#CB11AB"/>
</svg>
