<svg width="30" height="10" viewBox="0 0 30 10" fill="none" xmlns="http://www.w3.org/2000/svg">
<path d="M16.6813 1.51042L14.8645 5.42496H14.6806V0.666962H12.0852V8.66904H14.2372C14.8212 8.66904 15.3403 8.33382 15.589 7.81477L17.4166 3.91105H17.6005V8.66904H20.1959V0.666962H18.0114C17.4491 0.666962 16.9192 1.00218 16.6813 1.51042Z" fill="#319B42"/>
<path d="M6.97243 1.71588L5.90182 5.42496H5.71798L4.63656 1.71588C4.45271 1.08869 3.87956 0.666962 3.2307 0.666962H0.667725V8.66904H3.26315V3.91105H3.44699L4.93935 8.66904H6.66963L8.162 3.91105H8.34584V8.66904H10.9413V0.666962H8.37829C7.72943 0.666962 7.14546 1.08869 6.97243 1.71588Z" fill="#319B42"/>
<path d="M21.3244 4.23405V8.66904H23.9207V6.07295H26.7116C27.9232 6.07295 28.9509 5.30494 29.3295 4.23405H21.3244Z" fill="#319B42"/>
<path d="M26.6358 0.666962H20.8591C21.2161 2.57077 22.882 3.91208 24.8833 3.91208H29.3727C29.4051 3.73901 29.4267 3.5443 29.4267 3.3496C29.4267 1.80275 28.1827 0.666962 26.6358 0.666962Z" fill="url(#paint0_linear_7_2400)"/>
<defs>
<linearGradient id="paint0_linear_7_2400" x1="20.8591" y1="2.28952" x2="29.4267" y2="2.28952" gradientUnits="userSpaceOnUse">
<stop stop-color="#00A3E1"/>
<stop offset="0.3042" stop-color="#009ADD"/>
<stop offset="0.7987" stop-color="#0082D4"/>
<stop offset="1" stop-color="#0076CF"/>
</linearGradient>
</defs>
</svg>
